<?xml version="1.0" encoding="UTF-8"?>
<svg version="1.1" xmlns="http://www.w3.org/2000/svg" width="930" height="930">
<path d="M0 0 C3.73140322 0.44387887 7.46420141 0.54973806 11.2175293 0.6769104 C12.93712195 0.74338837 14.65668472 0.81064261 16.3762207 0.87857056 C17.27221985 0.91347595 18.16821899 0.94838135 19.09136963 0.98434448 C37.19839404 1.70366844 55.1668521 3.02846547 73.18432617 4.96133423 C74.00480438 5.04828049 74.82528259 5.13522675 75.67062378 5.22480774 C77.1813463 5.3861944 78.69160672 5.55201016 80.20120239 5.72361755 C85.28208438 6.27186431 90.26301196 6.34697714 95.3737793 6.28237915 C95.3737793 6.94237915 95.3737793 7.60237915 95.3737793 8.28237915 C96.6112793 8.34497925 96.6112793 8.34497925 97.8737793 8.40884399 C107.16791221 8.96509162 116.2189429 10.24536852 125.3737793 11.90737915 C126.10411377 12.0383197 126.83444824 12.16926025 127.58691406 12.3041687 C159.39087437 18.02987898 190.40285283 26.09348774 220.3737793 38.28237915 C221.08679199 38.56935669 221.79980469 38.85633423 222.53442383 39.15200806 C239.50801974 46.04514492 254.96577515 54.97841816 269.3737793 66.28237915 C270.38311523 67.06741821 271.39245117 67.85245728 272.43237305 68.6612854 C282.33949019 76.56224568 290.49738738 85.38712865 298.3737793 95.28237915 C298.98479492 96.01456665 299.59581055 96.74675415 300.2253418 97.50112915 C327.84233804 130.8765629 355.78574094 168.57026059 354.3737793 213.28237915 C355.06213867 213.51827759 355.75049805 213.75417603 356.4597168 213.9972229 C359.96078335 215.54125895 362.92412548 217.60143096 365.9987793 219.84487915 C366.61487061 220.29105591 367.23096191 220.73723267 367.86572266 221.19692993 C391.00966658 238.10347766 412.77616395 259.10782853 425.3737793 285.28237915 C426.09114258 286.75964478 426.09114258 286.75964478 426.82299805 288.26675415 C460.33574506 361.53895669 437.7402485 472.97785834 410.65820312 575.67984009 C406.17972311 587.26485429 400.37738986 601.84802227 390.49853516 609.78994751 C383.70671195 615.5208201 382.21994835 622.17194138 380.44003296 630.49575806 C379.74711123 633.72701407 378.98642927 636.941192 378.22901917 640.15783691 C377.84049169 641.80877045 377.45495163 643.46040984 377.07237244 645.11273193 C367.92948172 684.45021542 356.46113072 729.76240403 330.3737793 761.28237915 C329.70733398 762.13573853 329.04088867 762.9890979 328.35424805 763.86831665 C296.56773854 802.61400279 233.19563307 815.91520787 186.3737793 823.28237915 C185.25326172 823.46107544 184.13274414 823.63977173 182.97827148 823.82388306 C100.59047605 836.70934357 15.54705016 832.7197183 -109.6262207 807.28237915 C-110.64111572 807.02551331 -110.64111572 807.02551331 -111.67651367 806.76345825 C-139.9778065 799.58689026 -167.9865698 790.95889573 -195.01733398 779.8722229 C-195.85893066 779.52804321 -196.70052734 779.18386353 -197.56762695 778.82925415 C-198.28635986 778.52858032 -199.00509277 778.22790649 -199.74560547 777.91812134 C-201.76902693 777.12225592 -201.76902693 777.12225592 -204.6262207 777.28237915 C-204.6262207 776.62237915 -204.6262207 775.96237915 -204.6262207 775.28237915 C-205.87274414 774.88921509 -207.11926758 774.49605103 -208.40356445 774.0909729 C-214.14675478 772.17209538 -219.65478455 769.7944405 -225.1887207 767.34487915 C-226.27717285 766.86325317 -227.365625 766.3816272 -228.48706055 765.88540649 C-266.50335184 748.89240394 -302.45213465 727.82309635 -334.6262207 701.28237915 C-335.34036133 700.70359009 -336.05450195 700.12480103 -336.7902832 699.5284729 C-338.44363124 698.16166128 -340.04204732 696.72879833 -341.6262207 695.28237915 C-341.6262207 694.62237915 -341.6262207 693.96237915 -341.6262207 693.28237915 C-342.19211914 693.05808228 -342.75801758 692.8337854 -343.34106445 692.60269165 C-352.80793599 687.13294365 -363.19135661 671.04601664 -367.5793457 661.12808228 C-368.55073887 658.93577656 -368.55073887 658.93577656 -371.6262207 658.28237915 C-371.71645508 657.44448853 -371.80668945 656.6065979 -371.8996582 655.74331665 C-372.73919708 651.74422287 -374.3519255 648.48007391 -376.2512207 644.90737915 C-379.22308978 639.14667125 -382.02647868 633.34596564 -384.6262207 627.40737915 C-384.92866699 626.72369263 -385.23111328 626.0400061 -385.54272461 625.33560181 C-387.6262207 620.53513893 -387.6262207 620.53513893 -387.6262207 618.28237915 C-388.2862207 617.95237915 -388.9462207 617.62237915 -389.6262207 617.28237915 C-390.32397461 615.46524048 -390.32397461 615.46524048 -390.9777832 613.0519104 C-392.1318607 608.9720944 -393.37364871 604.94247155 -394.7121582 600.9190979 C-395.26746216 599.2326416 -395.26746216 599.2326416 -395.83398438 597.51211548 C-396.63030903 595.0954925 -397.43010035 592.68000978 -398.23291016 590.26553345 C-400.3933019 583.62753811 -402.12362123 577.15147278 -403.328125 570.27920532 C-404.65337617 561.90421647 -404.65337617 561.90421647 -409.6184082 555.3800354 C-412.54344454 553.40768997 -415.65898279 551.86068411 -418.81274414 550.29116821 C-443.48556342 536.56633121 -460.00158602 502.0195781 -467.3449707 476.26675415 C-481.43300794 423.24680562 -471.36908824 367.46753918 -444.31469727 320.38272095 C-439.53118673 312.25635386 -434.00099193 304.93413775 -427.52856445 298.0519104 C-422.40226987 292.3132261 -420.0058081 286.59315137 -417.54931641 279.43545532 C-411.66882448 262.4399365 -403.77908343 246.03169487 -395.53540039 230.06118774 C-394.62249215 228.27508424 -393.73409244 226.47879513 -392.8527832 224.6769104 C-383.17778419 204.92810353 -372.74537077 185.64144875 -360.6262207 167.28237915 C-360.12348633 166.5145813 -359.62075195 165.74678345 -359.1027832 164.95571899 C-345.72300279 144.53372547 -331.3023764 125.01197735 -315.6262207 106.28237915 C-315.20228027 105.76820435 -314.77833984 105.25402954 -314.34155273 104.72427368 C-308.33089595 97.44324602 -302.04984863 90.52628792 -295.3762207 83.84487915 C-294.72709717 83.19494995 -294.07797363 82.54502075 -293.40917969 81.87539673 C-243.40437659 32.44178697 -176.72509671 14.66589365 -108.6262207 6.28237915 C-107.94253418 6.19730103 -107.25884766 6.1122229 -106.55444336 6.02456665 C-86.79969762 3.57604041 -67.07660218 1.9143876 -47.1887207 1.03237915 C-45.80342163 0.97071564 -45.80342163 0.97071564 -44.39013672 0.9078064 C-34.47655276 0.479045 -24.5956528 0.19498134 -14.67285156 0.35366821 C-11.71815719 0.39161985 -11.71815719 0.39161985 -9.28076172 -0.28109741 C-6.03107057 -0.81548974 -3.24980914 -0.41854746 0 0 Z M-62.6262207 65.28237915 C-63.74839996 65.3806601 -63.74839996 65.3806601 -64.89324951 65.48092651 C-98.07420389 68.4184602 -131.634521 72.66664035 -163.6262207 82.28237915 C-157.11014351 92.69892508 -150.2547418 102.88718162 -143.41333008 113.09146118 C-138.43849065 120.51233593 -133.5136739 127.96472052 -128.62475586 135.4425354 C-127.06630045 137.82481125 -125.50009124 140.20174127 -123.9284668 142.5753479 C-119.27259276 149.62318787 -114.71395428 156.71909286 -110.26377869 163.89906311 C-107.73200764 167.96964711 -105.1659413 172.01804052 -102.59585571 176.06451416 C-101.32898821 178.07751844 -100.07731938 180.10017188 -98.84140015 182.13232422 C-97.09056992 185.0067358 -95.28916291 187.84290211 -93.47387695 190.6769104 C-92.96174652 191.54735992 -92.44961609 192.41780945 -91.92196655 193.31463623 C-89.6401367 196.78034878 -88.12969539 198.9621181 -83.9566803 199.85102844 C-80.7864466 199.8982562 -77.7741806 199.65446192 -74.6262207 199.28237915 C-73.64380905 199.2012236 -72.6613974 199.12006805 -71.6492157 199.03645325 C-68.56731885 198.76925123 -65.50000783 198.43002989 -62.42700195 198.0753479 C-60.08050405 197.81703702 -57.73398632 197.55890617 -55.38745117 197.30093384 C-54.17232849 197.16505859 -52.95720581 197.02918335 -51.70526123 196.88919067 C-19.9893222 193.35840198 11.69791294 190.82803347 43.5612793 189.15737915 C44.29848206 189.11858643 45.03568481 189.0797937 45.79522705 189.03982544 C72.32793552 187.66797273 98.8789189 187.08375488 125.44140625 186.72476196 C129.56076167 186.66886235 133.67995807 186.60509051 137.79917049 186.53958702 C141.02223347 186.48950534 144.24535214 186.44441671 147.46850777 186.40074539 C148.98947271 186.37937139 150.51041435 186.35625747 152.03132439 186.33127975 C154.13884994 186.29721339 156.24635804 186.27014655 158.35400391 186.24478149 C159.54481064 186.22781219 160.73561737 186.2108429 161.96250916 186.19335938 C165.50601714 186.28583 168.87299925 186.74360453 172.3737793 187.28237915 C173.86567161 187.39780444 175.35976631 187.48944815 176.85498047 187.54776001 C177.66596695 187.58134109 178.47695343 187.61492218 179.31251526 187.64952087 C180.60161049 187.69788338 180.60161049 187.69788338 181.91674805 187.7472229 C183.80168004 187.82477207 185.68660828 187.90241231 187.5715332 187.98013306 C189.03976532 188.03877533 189.03976532 188.03877533 190.53765869 188.09860229 C205.95725177 188.71707928 221.35175476 189.41093996 236.73388672 190.67276001 C242.51274593 191.13624496 248.19624632 191.34581617 253.99438477 191.21548462 C256.30720697 191.28050753 258.14795221 191.69219568 260.3737793 192.28237915 C262.09312899 192.4902314 263.81652179 192.66600891 265.54174805 192.8175354 C267.00451172 192.94805298 267.00451172 192.94805298 268.49682617 193.08120728 C269.5080957 193.16821899 270.51936523 193.25523071 271.5612793 193.34487915 C273.09558594 193.48119751 273.09558594 193.48119751 274.66088867 193.62026978 C279.01039818 194.07874606 279.01039818 194.07874606 283.3737793 194.28237915 C285.3737793 194.28237915 287.3737793 194.28237915 289.3737793 194.28237915 C288.3837793 191.64237915 287.3937793 189.00237915 286.3737793 186.28237915 C285.3837793 186.28237915 284.3937793 186.28237915 283.3737793 186.28237915 C284.0337793 185.62237915 284.6937793 184.96237915 285.3737793 184.28237915 C274.592922 165.06479886 263.50120801 147.4406786 248.3737793 131.28237915 C247.93050293 130.80510376 247.48722656 130.32782837 247.03051758 129.83609009 C235.20733445 117.20219791 221.65347953 108.26782775 206.3737793 100.28237915 C205.26389648 99.6997229 204.15401367 99.11706665 203.01049805 98.51675415 C153.76054929 74.20420736 95.59964959 67.59422711 41.3737793 64.28237915 C40.48932129 64.22453247 39.60486328 64.16668579 38.69360352 64.10708618 C5.0946259 61.98471403 -29.096359 62.32553819 -62.6262207 65.28237915 Z M-239.21606445 118.3019104 C-241.6262207 120.28237915 -241.6262207 120.28237915 -243.94262695 121.9190979 C-244.49821289 122.36898071 -245.05379883 122.81886353 -245.6262207 123.28237915 C-245.6262207 123.94237915 -245.6262207 124.60237915 -245.6262207 125.28237915 C-246.2862207 125.28237915 -246.9462207 125.28237915 -247.6262207 125.28237915 C-249.36782538 126.90559209 -250.99686446 128.55095311 -252.6262207 130.28237915 C-253.16005371 130.83909302 -253.69388672 131.39580688 -254.24389648 131.96939087 C-267.0859142 145.39859652 -279.11863879 159.17824847 -290.08764648 174.18179321 C-291.64160165 176.30337847 -293.20950503 178.41413584 -294.77856445 180.52456665 C-303.31192592 192.07994376 -311.11952311 204.03813994 -318.6262207 216.28237915 C-319.18390137 217.19132935 -319.74158203 218.10027954 -320.31616211 219.03677368 C-328.21635753 232.01780677 -335.37074524 245.3352474 -342.3137207 258.84487915 C-342.70789185 259.61157928 -343.10206299 260.37827942 -343.50817871 261.16821289 C-344.63866126 263.3722751 -345.76452787 265.57861178 -346.88793945 267.7862854 C-347.22172104 268.43954803 -347.55550262 269.09281067 -347.8993988 269.76586914 C-351.99377992 277.19690838 -351.99377992 277.19690838 -353.6262207 285.28237915 C-352.67102539 285.63429321 -351.71583008 285.98620728 -350.73168945 286.3487854 C-326.85161112 295.37125073 -311.55018448 311.45647811 -300.6262207 334.28237915 C-280.14313174 380.53211499 -273.9720525 436.7666369 -290.95043945 485.12612915 C-300.64639798 510.01761882 -314.4878656 533.31091359 -335.75512695 549.9815979 C-337.88656327 552.19798184 -337.88656327 552.19798184 -338.0637207 555.38394165 C-337.50150572 560.39367875 -336.37645762 565.10855474 -335.0637207 569.96987915 C-334.79197021 570.98372681 -334.52021973 571.99757446 -334.24023438 573.04214478 C-323.47985615 612.3403838 -305.27207508 648.50346106 -269.6262207 670.28237915 C-268.4787626 671.0019169 -267.33162029 671.72195852 -266.18481445 672.4425354 C-226.1875258 697.26629434 -182.10656521 715.59613104 -137.6105957 730.61245728 C-135.70735486 731.25498839 -133.80542884 731.90141017 -131.90356445 732.54800415 C-69.05876462 753.79520322 -1.03877513 765.96803401 65.3737793 766.28237915 C66.07809082 766.28811951 66.78240234 766.29385986 67.50805664 766.29977417 C80.44008882 766.40095372 93.33030936 766.12320457 106.2487793 765.53237915 C107.66210037 765.46802673 107.66210037 765.46802673 109.10397339 765.40237427 C199.66528415 761.7554353 199.66528415 761.7554353 279.3737793 725.28237915 C280.10854492 724.6894104 280.84331055 724.09644165 281.6003418 723.48550415 C295.60526514 711.77570203 302.7524048 694.8269264 306.3737793 677.28237915 C306.3737793 676.29237915 306.3737793 675.30237915 306.3737793 674.28237915 C301.06045086 675.8173407 296.55957255 678.2574376 291.7487793 680.90737915 C240.62086968 708.33219759 178.83832471 718.00183218 121.3737793 719.28237915 C120.49963379 719.30429321 119.62548828 719.32620728 118.72485352 719.3487854 C31.05737561 721.2521864 -57.74374996 701.63451457 -154.86450195 649.41079712 C-156.41533039 648.41745884 -157.98801572 647.45842073 -159.5637207 646.5050354 C-172.21093454 638.8075496 -183.80555205 629.34719227 -194.6262207 619.28237915 C-195.97644984 618.11115767 -197.33048561 616.94430682 -198.6887207 615.78237915 C-200.00540883 614.62044122 -201.31786605 613.45369271 -202.6262207 612.28237915 C-203.29911133 611.68812134 -203.97200195 611.09386353 -204.6652832 610.4815979 C-219.61688909 596.48145784 -230.14317034 577.84521535 -237.5012207 558.90737915 C-237.77562988 558.22619019 -238.05003906 557.54500122 -238.33276367 556.84317017 C-243.66047669 542.28550064 -244.20865562 525.8619489 -245.1887207 510.53237915 C-245.24936707 509.62318726 -245.31001343 508.71399536 -245.37249756 507.7772522 C-259.30529326 298.70873809 -259.30529326 298.70873809 -223.7512207 256.96987915 C-203.20354672 233.55403863 -175.95346503 220.98492013 -146.6262207 212.28237915 C-147.19179885 208.09408193 -148.57640083 205.44469468 -150.94262695 201.9659729 C-151.62518555 200.95341431 -152.30774414 199.94085571 -153.01098633 198.89761353 C-153.72963867 197.84896118 -154.44829102 196.80030884 -155.1887207 195.71987915 C-156.58585612 193.65607707 -157.98299154 191.59227498 -159.38012695 189.5284729 C-160.07992676 188.50076782 -160.77972656 187.47306274 -161.50073242 186.41421509 C-164.90896398 181.39229981 -168.2663432 176.33671539 -171.6262207 171.28237915 C-172.47493494 170.00877895 -173.32385248 168.73531418 -174.1730957 167.46206665 C-197.7512207 132.09487915 -197.7512207 132.09487915 -199.62231445 129.2862854 C-201.13302643 127.02168986 -202.64626099 124.75886857 -204.16137695 122.4972229 C-204.59877197 121.84334595 -205.03616699 121.18946899 -205.48681641 120.51577759 C-206.36057718 119.20971824 -207.23538799 117.90436067 -208.11132812 116.59976196 C-210.36263973 113.23313378 -212.5111748 109.8379166 -214.5637207 106.34487915 C-215.2443457 105.33425415 -215.9249707 104.32362915 -216.6262207 103.28237915 C-224.55115159 103.28237915 -233.34438497 113.41605045 -239.21606445 118.3019104 Z M78.6237793 244.09487915 C77.90695984 244.11665474 77.19014038 244.13843033 76.45159912 244.16086578 C50.71408601 244.94462373 25.03769894 246.13133801 -0.6262207 248.28237915 C-1.52346863 248.35756775 -2.42071655 248.43275635 -3.34515381 248.51022339 C-47.66692821 252.25979632 -92.73614062 256.96888925 -135.6262207 269.28237915 C-136.35615234 269.49072388 -137.08608398 269.6990686 -137.83813477 269.91372681 C-156.20729303 275.28111367 -172.83555788 283.94764145 -183.6262207 300.28237915 C-184.31358503 301.94061692 -184.98322067 303.60643966 -185.6262207 305.28237915 C-176.66416062 304.69415639 -167.8142058 303.72953552 -158.9230957 302.46987915 C-157.05648285 302.20920654 -157.05648285 302.20920654 -155.15216064 301.94326782 C-151.89061217 301.48639562 -148.62964501 301.02561521 -145.36883545 300.56350708 C-142.68993006 300.18555388 -140.01018128 299.81377591 -137.33042526 299.44190979 C-134.13157798 298.99695327 -130.93362896 298.54564338 -127.7355957 298.09487915 C-126.53473328 297.92818726 -125.33387085 297.76149536 -124.09661865 297.5897522 C-122.99747131 297.4328894 -121.89832397 297.27602661 -120.76586914 297.1144104 C-119.79470154 296.97752808 -118.82353394 296.84064575 -117.82293701 296.69961548 C-115.65817222 296.50191092 -115.65817222 296.50191092 -114.6262207 295.28237915 C-112.4457714 295.11106805 -110.26064126 295.00011395 -108.07543945 294.90737915 C-99.49361563 294.47556852 -90.94911481 293.71790619 -82.39575195 292.90737915 C-81.71427975 292.84280518 -81.03280754 292.7782312 -80.33068466 292.71170044 C-76.80580158 292.37668067 -73.2812255 292.0385651 -69.75683594 291.69839478 C-66.13181049 291.34851424 -62.50635447 291.00334578 -58.88074207 290.65960693 C-56.06066973 290.39183834 -53.24080257 290.12195871 -50.42099571 289.85140991 C-48.43919192 289.66154097 -46.45724537 289.47316402 -44.47529602 289.28482056 C-43.26931259 289.16799927 -42.06332916 289.05117798 -40.82080078 288.93081665 C-39.7662117 288.82946411 -38.71162262 288.72811157 -37.62507629 288.62368774 C-34.60233346 288.27966047 -31.62486685 287.7919516 -28.6262207 287.28237915 C-26.96810456 287.166195 -25.3072367 287.08441385 -23.64575195 287.0362854 C-22.18032959 286.98891235 -22.18032959 286.98891235 -20.68530273 286.94058228 C-19.61393066 286.90900024 -18.54255859 286.87741821 -17.4387207 286.84487915 C-4.17044919 286.40662694 9.08719764 285.80324133 22.34677124 285.15545654 C50.86932813 283.76245881 79.3843532 283.01480092 107.9362793 282.65737915 C109.22435297 282.64124762 109.22435297 282.64124762 110.53844833 282.62479019 C162.01601658 281.99119239 213.24954989 283.23969194 264.65625 285.9100647 C265.52593351 285.95518566 266.39561703 286.00030663 267.29165459 286.04679489 C271.39804176 286.26039856 275.50425532 286.47671666 279.61022949 286.69812012 C281.07478815 286.77577187 282.53934706 286.85341903 284.00390625 286.93106079 C285.26411087 286.99910416 286.52431549 287.06714752 287.82270813 287.13725281 C290.28313045 287.23780616 292.74705772 287.26786355 295.20939636 287.24183655 C298.3737793 287.28237915 298.3737793 287.28237915 300.3737793 288.28237915 C302.55918264 288.54177751 304.75091151 288.74851053 306.9440918 288.93081665 C308.31885493 289.04881461 309.69361048 289.16690099 311.06835938 289.2850647 C311.79181549 289.34576141 312.51527161 289.40645813 313.26065063 289.46899414 C325.59849213 290.50747974 337.88661211 291.72595518 350.16137695 293.36782837 C351.06291504 293.48787231 351.96445312 293.60791626 352.89331055 293.7315979 C353.66779541 293.83818726 354.44228027 293.94477661 355.24023438 294.05459595 C357.67906707 294.35315214 357.67906707 294.35315214 361.3737793 294.28237915 C359.00723217 287.37995002 354.23166158 282.48100906 348.3737793 278.28237915 C347.7137793 278.28237915 347.0537793 278.28237915 346.3737793 278.28237915 C346.3737793 277.62237915 346.3737793 276.96237915 346.3737793 276.28237915 C339.9421432 270.97407675 332.73449818 266.7265324 325.3112793 262.96987915 C324.39475586 262.50074097 324.39475586 262.50074097 323.4597168 262.02212524 C314.36944757 257.57425082 304.79196426 254.80620736 294.8112793 253.28237915 C293.75996826 253.12068237 292.70865723 252.9589856 291.62548828 252.79238892 C240.10980917 245.29663523 187.3661287 243.74316 135.3737793 243.28237915 C134.45618835 243.27417145 133.53859741 243.26596375 132.59320068 243.25750732 C114.59312535 243.12243193 96.61357729 243.54148079 78.6237793 244.09487915 Z M79.1862793 337.09487915 C78.42300575 337.11665474 77.65973221 337.13843033 76.87332916 337.16086578 C-3.98427922 339.46963851 -84.99553608 343.52591052 -164.8762207 356.90737915 C-166.64280029 357.19826416 -166.64280029 357.19826416 -168.44506836 357.49502563 C-171.52252342 358.02904529 -174.57289499 358.6253479 -177.6262207 359.28237915 C-178.44928711 359.44705688 -179.27235352 359.61173462 -180.12036133 359.78140259 C-182.59007182 360.34742024 -182.59007182 360.34742024 -185.6262207 362.28237915 C-188.02978267 369.85475894 -187.93177341 377.36319535 -187.92700195 385.25112915 C-187.93206214 386.62971691 -187.93763988 388.00830285 -187.94369507 389.3868866 C-187.95593704 393.08457857 -187.95267662 396.78208925 -187.94387436 400.47978592 C-187.93870047 402.79141771 -187.93673396 405.10303604 -187.93521118 407.41467285 C-187.91082123 428.75483672 -187.45759697 450.03209881 -186.3137207 471.34487915 C-186.25495758 472.46716919 -186.19619446 473.58945923 -186.13565063 474.74575806 C-185.52315366 524.04795513 -185.52315366 524.04795513 -163.6262207 566.28237915 C-162.9662207 566.28237915 -162.3062207 566.28237915 -161.6262207 566.28237915 C-161.3890332 566.85085571 -161.1518457 567.41933228 -160.9074707 568.0050354 C-145.33209494 595.6893161 -96.73528805 612.64041429 -69.0012207 623.90737915 C-67.83848633 624.38433228 -66.67575195 624.8612854 -65.4777832 625.35269165 C-59.25248916 627.88787927 -53.03674524 630.26321742 -46.6262207 632.28237915 C-45.73902344 632.56838989 -44.85182617 632.85440063 -43.93774414 633.14907837 C-41.06503879 634.07479321 -38.18974022 634.99201758 -35.3137207 635.90737915 C-34.33854492 636.21933228 -33.36336914 636.5312854 -32.35864258 636.85269165 C-31.41956055 637.15175415 -30.48047852 637.45081665 -29.51293945 637.75894165 C-28.24776489 638.16233765 -28.24776489 638.16233765 -26.95703125 638.57388306 C-24.85555552 639.21266828 -22.7594828 639.7621573 -20.6262207 640.28237915 C-18.63215871 640.81147655 -16.63873941 641.34299852 -14.64575195 641.87612915 C-12.24342495 642.51160912 -9.84108052 643.14702323 -7.4387207 643.78237915 C-6.2444043 644.10335571 -5.05008789 644.42433228 -3.81958008 644.7550354 C2.60178987 646.44431159 8.75040146 647.77015229 15.3737793 648.28237915 C15.7037793 647.62237915 16.0337793 646.96237915 16.3737793 646.28237915 C16.3737793 647.27237915 16.3737793 648.26237915 16.3737793 649.28237915 C21.22883352 650.14448087 26.0851862 650.99870236 30.94287109 651.84585571 C32.59298475 652.13474274 34.24273269 652.42572726 35.89208984 652.71890259 C38.27175837 653.14150757 40.65266824 653.5563901 43.03393555 653.96987915 C43.76338882 654.10112183 44.4928421 654.2323645 45.24440002 654.36758423 C49.6791638 655.12840351 53.86062789 655.31077938 58.3737793 655.28237915 C59.0337793 655.61237915 59.6937793 655.94237915 60.3737793 656.28237915 C62.06068161 656.32728836 63.7492263 656.32121778 65.4362793 656.28237915 C67.08167916 656.24460813 68.72860086 656.23595436 70.3737793 656.28237915 C70.7037793 656.61237915 71.0337793 656.94237915 71.3737793 657.28237915 C79.16819679 658.32660561 87.04116872 658.44144493 94.89331055 658.4503479 C95.95378098 658.4536763 97.0142514 658.4570047 98.1068573 658.46043396 C100.33962577 658.46546122 102.57240165 658.4678436 104.80517578 658.46768188 C108.14002631 658.46984909 111.47453474 658.4879974 114.80932617 658.50698853 C129.0981369 658.54306237 143.16524663 657.79575863 157.3737793 656.28237915 C157.3737793 655.62237915 157.3737793 654.96237915 157.3737793 654.28237915 C158.0337793 654.61237915 158.6937793 654.94237915 159.3737793 655.28237915 C169.17181583 655.18696362 178.73312474 653.51208951 188.3112793 651.59487915 C188.97521698 651.46432129 189.63915466 651.33376343 190.32321167 651.19924927 C204.83057688 648.34238493 219.3870757 645.13621236 233.3737793 640.28237915 C234.3637793 639.95237915 235.3537793 639.62237915 236.3737793 639.28237915 C272.41863605 626.67719583 304.45104858 609.58123475 332.3737793 583.28237915 C333.04538086 582.65331665 333.71698242 582.02425415 334.40893555 581.37612915 C341.81448365 574.223618 347.64691635 566.1259619 353.0612793 557.40737915 C353.51277344 556.68896851 353.96426758 555.97055786 354.42944336 555.2303772 C361.12065908 544.2203082 364.48198619 532.92627689 366.8112793 520.34487915 C367.02814392 519.20362076 367.02814392 519.20362076 367.24938965 518.03930664 C374.21953178 481.21328077 380.31440624 442.37704769 379.3815918 404.81362915 C379.37901367 403.64831665 379.37643555 402.48300415 379.3737793 401.28237915 C379.7037793 400.95237915 380.0337793 400.62237915 380.3737793 400.28237915 C380.4733236 398.54899351 380.50458276 396.81158832 380.5065918 395.0753479 C380.50788086 394.01380493 380.50916992 392.95226196 380.51049805 391.85855103 C380.50663086 390.74028931 380.50276367 389.62202759 380.4987793 388.46987915 C380.50264648 387.36321899 380.50651367 386.25655884 380.51049805 385.11636353 C380.50920898 384.05095337 380.50791992 382.98554321 380.5065918 381.8878479 C380.50546387 380.90969116 380.50433594 379.93153442 380.50317383 378.92373657 C380.38626334 376.53721842 379.98279288 374.57680241 379.3737793 372.28237915 C379.34437708 368.68270765 379.43953901 365.09561893 379.53393555 361.4972229 C379.64146063 358.12856973 379.64146063 358.12856973 377.3737793 355.28237915 C316.6336842 329.79070012 230.21882918 337.89990155 165.4362793 336.71987915 C164.2330603 336.69755219 163.02984131 336.67522522 161.79016113 336.65222168 C134.22904472 336.14838751 106.73797141 336.29938553 79.1862793 337.09487915 Z M-397.87231445 352.2394104 C-417.24285853 374.80242722 -419.36076759 408.09837557 -417.38793945 436.4425354 C-415.3113912 455.38317246 -409.3076813 478.05963944 -394.52075195 491.1456604 C-388.37483492 495.42358764 -383.01642759 497.07683128 -375.5324707 495.9737854 C-367.16635041 493.56686587 -361.57272808 486.30872566 -357.40234375 479.05386353 C-342.29875612 451.13935753 -340.1929567 415.83729969 -348.95043945 385.5362854 C-353.30370376 371.3874455 -358.84790511 359.61482917 -369.6262207 349.28237915 C-370.2862207 348.95237915 -370.9462207 348.62237915 -371.6262207 348.28237915 C-372.1624707 347.95237915 -372.6987207 347.62237915 -373.2512207 347.28237915 C-382.12356669 343.54665453 -390.95554732 345.73989604 -397.87231445 352.2394104 Z " fill="#010101" transform="translate(480.626220703125,50.717620849609375)"/>
<path d="M0 0 C1.65164958 1.38894626 3.29752571 2.78478749 4.9375 4.1875 C5.73800781 4.81914062 6.53851562 5.45078125 7.36328125 6.1015625 C25.47532525 21.06494176 35.75925031 44.256577 38.9375 67.1875 C39.67648297 77.87246681 39.37477066 88.84698047 32.5625 97.6875 C27.00533853 102.98003473 22.10588985 105.65545604 14.45703125 105.51953125 C5.35030639 104.31942022 -2.68151809 97.36225246 -9.0625 91.1875 C-9.0625 90.5275 -9.0625 89.8675 -9.0625 89.1875 C-9.57296875 88.94773437 -10.0834375 88.70796875 -10.609375 88.4609375 C-12.57830713 87.43884853 -14.49505796 86.31653166 -16.390625 85.1640625 C-33.97665425 74.51161748 -52.66608778 70.85837766 -73.0625 75.1875 C-86.01204451 78.99096622 -96.57389837 85.18646838 -105.82421875 94.89990234 C-111.48201765 100.80786323 -117.33145572 105.21888595 -125.75 105.5625 C-132.28412836 105.47690007 -136.07577835 102.91686242 -140.78515625 98.61328125 C-147.16803264 91.88538452 -148.61400616 83.7591799 -148.5 74.75 C-148.49170166 73.88600586 -148.48340332 73.02201172 -148.47485352 72.13183594 C-147.77156946 44.71126625 -134.77384472 22.92790793 -115.81640625 3.9375 C-84.57002585 -25.41689773 -33.4339968 -26.17700525 0 0 Z " fill="#010101" transform="translate(516.0625,461.8125)"/>
<path d="M0 0 C0.495 0.99 0.495 0.99 1 2 C1.80179688 1.96519531 2.60359375 1.93039062 3.4296875 1.89453125 C29.25266233 1.27969852 52.11073542 9.18541581 70.94750977 26.98974609 C89.59088669 45.08747859 100.90814286 68.4097125 102.03515625 94.5234375 C101.94515924 103.42314222 100.4544973 112.36219006 94.1015625 118.9765625 C89.63640509 123.01014335 85.85531887 126.27970885 79.625 126.3125 C78.89539063 126.32925781 78.16578125 126.34601563 77.4140625 126.36328125 C71.9704504 125.5440969 68.1458186 122.50568374 64.25 118.8125 C60.80151462 115.62928272 57.32295697 112.53154683 53.6875 109.5625 C52.90761719 108.92441406 52.12773438 108.28632812 51.32421875 107.62890625 C48.95528515 105.96866203 46.72024791 104.95810502 44 104 C44 103.34 44 102.68 44 102 C43.13503906 101.71253906 42.27007813 101.42507813 41.37890625 101.12890625 C39.23876234 100.41387551 37.10048412 99.69321531 34.96484375 98.96484375 C33.46630859 98.45630859 33.46630859 98.45630859 31.9375 97.9375 C30.43509766 97.42509766 30.43509766 97.42509766 28.90234375 96.90234375 C11.44697309 91.47543847 -8.529431 93.5277924 -25 101 C-32.02054325 104.70914077 -37.78812046 109.39654288 -43.58203125 114.78515625 C-50.64754981 121.25712559 -56.77375997 126.57702631 -66.7265625 126.3125 C-71.87224406 125.60518982 -75.05536235 122.92266933 -78.6875 119.375 C-86.18228701 109.4314212 -86.90417955 97.32025329 -85.24365234 85.3605957 C-81.68734533 63.19137854 -72.03327566 41.21886151 -55 26 C-54.34 26 -53.68 26 -53 26 C-53 25.34 -53 24.68 -53 24 C-38.70370362 11.95057917 -19.15899234 1.65550931 0 3 C0 2.01 0 1.02 0 0 Z " fill="#010101" transform="translate(703,441)"/>
<path d="M0 0 C1.98 0 3.96 0 6 0 C4 2 4 2 1.375 2.125 C0.59125 2.08375 -0.1925 2.0425 -1 2 C-0.67 1.34 -0.34 0.68 0 0 Z " fill="#0A0B0A" transform="translate(447,441)"/>
<path d="M0 0 C0.33 0 0.66 0 1 0 C1 2.97 1 5.94 1 9 C0.67 9 0.34 9 0 9 C0 6.03 0 3.06 0 0 Z " fill="#0E0E0E" transform="translate(859,433)"/>
<path d="M0 0 C2.31 0 4.62 0 7 0 C7 0.33 7 0.66 7 1 C4.69 1 2.38 1 0 1 C0 0.67 0 0.34 0 0 Z " fill="#151314" transform="translate(619,880)"/>
<path d="M0 0 C0.33 0.99 0.66 1.98 1 3 C0.01 3.33 -0.98 3.66 -2 4 C-2 3.34 -2 2.68 -2 2 C-1.34 2 -0.68 2 0 2 C0 1.34 0 0.68 0 0 Z " fill="#0D0D0C" transform="translate(621,505)"/>
<path d="M0 0 C0.33 0.66 0.66 1.32 1 2 C1.66 2.33 2.32 2.66 3 3 C1.35 3 -0.3 3 -2 3 C-1.34 2.67 -0.68 2.34 0 2 C0 1.34 0 0.68 0 0 Z " fill="#111110" transform="translate(239,89)"/>
<path d="M0 0 C0.66 0.66 1.32 1.32 2 2 C1.67 2.99 1.34 3.98 1 5 C0.67 3.35 0.34 1.7 0 0 Z " fill="#0F0E0D" transform="translate(13,531)"/>
<path d="M0 0 C0.33 0 0.66 0 1 0 C1 1.98 1 3.96 1 6 C0.67 6 0.34 6 0 6 C0 4.02 0 2.04 0 0 Z " fill="#0F0E0E" transform="translate(6,490)"/>
<path d="M0 0 C1.98 0 3.96 0 6 0 C6 0.33 6 0.66 6 1 C4.02 1 2.04 1 0 1 C0 0.67 0 0.34 0 0 Z " fill="#0D0D0D" transform="translate(732,392)"/>
<path d="M0 0 C1.98 0 3.96 0 6 0 C6 0.33 6 0.66 6 1 C4.02 1 2.04 1 0 1 C0 0.67 0 0.34 0 0 Z " fill="#0E0E0D" transform="translate(714,391)"/>
<path d="M0 0 C1.32 0.33 2.64 0.66 4 1 C3.01 1.495 3.01 1.495 2 2 C1.34 1.34 0.68 0.68 0 0 Z " fill="#0D0C0B" transform="translate(337,777)"/>
<path d="M0 0 C1.65 0 3.3 0 5 0 C5 0.33 5 0.66 5 1 C3.35 1 1.7 1 0 1 C0 0.67 0 0.34 0 0 Z " fill="#0E0D0C" transform="translate(97,545)"/>
<path d="M0 0 C0.33 0 0.66 0 1 0 C1 1.65 1 3.3 1 5 C0.67 5 0.34 5 0 5 C0 3.35 0 1.7 0 0 Z " fill="#0B090A" transform="translate(66,493)"/>
<path d="M0 0 C0 0.99 0 1.98 0 3 C-0.66 2.34 -1.32 1.68 -2 1 C-1.34 0.67 -0.68 0.34 0 0 Z " fill="#0D0C0B" transform="translate(420,449)"/>
<path d="M0 0 C1.65 0 3.3 0 5 0 C5 0.33 5 0.66 5 1 C3.35 1 1.7 1 0 1 C0 0.67 0 0.34 0 0 Z " fill="#0A0B09" transform="translate(796,338)"/>
<path d="M0 0 C0.66 1.32 1.32 2.64 2 4 C1.34 4 0.68 4 0 4 C0 2.68 0 1.36 0 0 Z " fill="#0D0C0B" transform="translate(805,315)"/>
<path d="M0 0 C1.65 0 3.3 0 5 0 C5 0.33 5 0.66 5 1 C3.35 1 1.7 1 0 1 C0 0.67 0 0.34 0 0 Z " fill="#0B0C0B" transform="translate(445,243)"/>
<path d="M0 0 C1.65 0 3.3 0 5 0 C5 0.33 5 0.66 5 1 C3.35 1 1.7 1 0 1 C0 0.67 0 0.34 0 0 Z " fill="#0A0907" transform="translate(742,241)"/>
<path d="M0 0 C1.485 0.99 1.485 0.99 3 2 C1.68 1.67 0.36 1.34 -1 1 C-0.67 0.67 -0.34 0.34 0 0 Z " fill="#161715" transform="translate(443,49)"/>
<path d="M0 0 C4 1 4 1 4 1 Z " fill="#110F0F" transform="translate(524,768)"/>
<path d="M0 0 C4 1 4 1 4 1 Z " fill="#0C0C0C" transform="translate(700,759)"/>
<path d="M0 0 C0.99 0.33 1.98 0.66 3 1 C2.01 1 1.02 1 0 1 C0 0.67 0 0.34 0 0 Z " fill="#0E0D0D" transform="translate(389,734)"/>
<path d="M0 0 C0.66 0.66 1.32 1.32 2 2 C1.01 1.67 0.02 1.34 -1 1 C-0.67 0.67 -0.34 0.34 0 0 Z " fill="#0D0D0B" transform="translate(623,705)"/>
<path d="M0 0 C0.66 0 1.32 0 2 0 C2 0.66 2 1.32 2 2 C1.34 2 0.68 2 0 2 C0 1.34 0 0.68 0 0 Z " fill="#0C0C0B" transform="translate(706,689)"/>
<path d="M0 0 C0.99 0.33 1.98 0.66 3 1 C2.01 1 1.02 1 0 1 C0 0.67 0 0.34 0 0 Z " fill="#0C0D0B" transform="translate(462,689)"/>
<path d="M0 0 C0.99 0.495 0.99 0.495 2 1 C1.67 1.66 1.34 2.32 1 3 C0.67 2.01 0.34 1.02 0 0 Z " fill="#0E0F0E" transform="translate(246,622)"/>
<path d="M0 0 C0.99 1.485 0.99 1.485 2 3 C1.34 3 0.68 3 0 3 C0 2.01 0 1.02 0 0 Z " fill="#0E0E0E" transform="translate(19,547)"/>
<path d="M0 0 C1 4 1 4 1 4 Z " fill="#0F0E0E" transform="translate(133,453)"/>
<path d="M0 0 C0.66 0 1.32 0 2 0 C1.67 0.99 1.34 1.98 1 3 C0.67 2.01 0.34 1.02 0 0 Z " fill="#0A0B0A" transform="translate(689,441)"/>
<path d="M0 0 C4 1 4 1 4 1 Z " fill="#0B0A0A" transform="translate(135,337)"/>
<path d="M0 0 C4 1 4 1 4 1 Z " fill="#0B0C0C" transform="translate(366,316)"/>
<path d="M0 0 C4 1 4 1 4 1 Z " fill="#0B0B0A" transform="translate(452,303)"/>
<path d="M0 0 C4 1 4 1 4 1 Z " fill="#0C0C0C" transform="translate(527,237)"/>
<path d="M0 0 C0.99 0.495 0.99 0.495 2 1 C1.67 1.66 1.34 2.32 1 3 C0.67 2.01 0.34 1.02 0 0 Z " fill="#0A0B0A" transform="translate(217,194)"/>
<path d="M0 0 C0.99 0.33 1.98 0.66 3 1 C2.01 1 1.02 1 0 1 C0 0.67 0 0.34 0 0 Z " fill="#0C0C0B" transform="translate(151,169)"/>
<path d="M0 0 C0.99 0 1.98 0 3 0 C2.67 0.66 2.34 1.32 2 2 C1.34 1.34 0.68 0.68 0 0 Z " fill="#111110" transform="translate(659,73)"/>
<path d="M0 0 C0.66 0.66 1.32 1.32 2 2 C1.01 1.67 0.02 1.34 -1 1 C-0.67 0.67 -0.34 0.34 0 0 Z " fill="#141414" transform="translate(311,65)"/>
<path d="M0 0 C4 1 4 1 4 1 Z " fill="#121210" transform="translate(625,65)"/>
<path d="M0 0 C4 1 4 1 4 1 Z " fill="#171716" transform="translate(501,50)"/>
<path d="M0 0 C3 1 3 1 3 1 Z " fill="#161516" transform="translate(485,879)"/>
<path d="M0 0 C3 1 3 1 3 1 Z " fill="#151413" transform="translate(642,878)"/>
<path d="M0 0 C3 1 3 1 3 1 Z " fill="#141313" transform="translate(459,876)"/>
<path d="M0 0 C3 1 3 1 3 1 Z " fill="#0D0E0C" transform="translate(482,809)"/>
<path d="M0 0 C0.33 0.66 0.66 1.32 1 2 C0.34 1.67 -0.32 1.34 -1 1 C-0.67 0.67 -0.34 0.34 0 0 Z " fill="#0D0B0B" transform="translate(684,801)"/>
<path d="M0 0 C3 1 3 1 3 1 Z " fill="#090A09" transform="translate(421,801)"/>
<path d="M0 0 C0.99 0.495 0.99 0.495 2 1 C1.01 1.495 1.01 1.495 0 2 C0 1.34 0 0.68 0 0 Z " fill="#0C0B09" transform="translate(732,788)"/>
<path d="M0 0 C3 1 3 1 3 1 Z " fill="#0A0A09" transform="translate(360,785)"/>
<path d="M0 0 C0.66 0 1.32 0 2 0 C1.67 0.66 1.34 1.32 1 2 C0.67 1.34 0.34 0.68 0 0 Z " fill="#0D0C0A" transform="translate(171,773)"/>
<path d="M0 0 C3 1 3 1 3 1 Z " fill="#0B0A0A" transform="translate(314,769)"/>
<path d="M0 0 C0.66 0.66 1.32 1.32 2 2 C1.34 2 0.68 2 0 2 C0 1.34 0 0.68 0 0 Z " fill="#0D0D0D" transform="translate(164,767)"/>
<path d="M0 0 C0.66 0 1.32 0 2 0 C1.67 0.66 1.34 1.32 1 2 C0.67 1.34 0.34 0.68 0 0 Z " fill="#0B0A09" transform="translate(300,763)"/>
<path d="M0 0 C0.99 0.495 0.99 0.495 2 1 C1.01 1.495 1.01 1.495 0 2 C0 1.34 0 0.68 0 0 Z " fill="#100F0E" transform="translate(413,743)"/>
<path d="M0 0 C0.33 0.66 0.66 1.32 1 2 C0.34 1.67 -0.32 1.34 -1 1 C-0.67 0.67 -0.34 0.34 0 0 Z " fill="#0E0C0B" transform="translate(781,739)"/>
<path d="M0 0 C0.66 0 1.32 0 2 0 C1.67 0.66 1.34 1.32 1 2 C0.67 1.34 0.34 0.68 0 0 Z " fill="#0C0C0B" transform="translate(125,732)"/>
<path d="M0 0 C3 1 3 1 3 1 Z " fill="#0E0E0C" transform="translate(575,707)"/>
<path d="M0 0 C0.33 0.66 0.66 1.32 1 2 C0.34 1.67 -0.32 1.34 -1 1 C-0.67 0.67 -0.34 0.34 0 0 Z " fill="#0C0D0C" transform="translate(620,705)"/>
<path d="M0 0 C0.66 0.66 1.32 1.32 2 2 C1.34 2 0.68 2 0 2 C0 1.34 0 0.68 0 0 Z " fill="#0B0B08" transform="translate(498,697)"/>
<path d="" fill="#090A09" transform="translate(0,0)"/>
<path d="M0 0 C0.33 0.66 0.66 1.32 1 2 C0.34 1.67 -0.32 1.34 -1 1 C-0.67 0.67 -0.34 0.34 0 0 Z " fill="#0D0C0C" transform="translate(100,690)"/>
<path d="M0 0 C0.66 0.66 1.32 1.32 2 2 C1.34 2 0.68 2 0 2 C0 1.34 0 0.68 0 0 Z " fill="#0C0C0A" transform="translate(731,681)"/>
<path d="M0 0 C3 1 3 1 3 1 Z " fill="#090908" transform="translate(393,665)"/>
<path d="" fill="#0D0D0C" transform="translate(0,0)"/>
<path d="" fill="#0E0F0D" transform="translate(0,0)"/>
<path d="" fill="#10100F" transform="translate(0,0)"/>
<path d="" fill="#0F0D0D" transform="translate(0,0)"/>
<path d="M0 0 C0.66 0.66 1.32 1.32 2 2 C1.34 2 0.68 2 0 2 C0 1.34 0 0.68 0 0 Z " fill="#11110F" transform="translate(630,566)"/>
<path d="" fill="#0F0F0F" transform="translate(0,0)"/>
<path d="" fill="#10110F" transform="translate(0,0)"/>
<path d="" fill="#0E0F0C" transform="translate(0,0)"/>
<path d="" fill="#0F0E0D" transform="translate(0,0)"/>
<path d="M0 0 C0.66 0 1.32 0 2 0 C1.67 0.66 1.34 1.32 1 2 C0.67 1.34 0.34 0.68 0 0 Z " fill="#0B0B0A" transform="translate(481,441)"/>
<path d="M0 0 C3 1 3 1 3 1 Z " fill="#0C0C0B" transform="translate(458,441)"/>
<path d="M0 0 C3 1 3 1 3 1 Z " fill="#0F0F0F" transform="translate(536,390)"/>
<path d="M0 0 C3 1 3 1 3 1 Z " fill="#111110" transform="translate(572,389)"/>
<path d="M0 0 C0.66 0.66 1.32 1.32 2 2 C1.34 2 0.68 2 0 2 C0 1.34 0 0.68 0 0 Z " fill="#0C0B0B" transform="translate(39,361)"/>
<path d="M0 0 C0.66 0.66 1.32 1.32 2 2 C1.34 2 0.68 2 0 2 C0 1.34 0 0.68 0 0 Z " fill="#0C0C0C" transform="translate(351,345)"/>
<path d="M0 0 C3 1 3 1 3 1 Z " fill="#0B0A0A" transform="translate(824,341)"/>
<path d="M0 0 C3 1 3 1 3 1 Z " fill="#0A0A0A" transform="translate(438,337)"/>
<path d="M0 0 C3 1 3 1 3 1 Z " fill="#090A0A" transform="translate(517,333)"/>
<path d="M0 0 C0.99 0.495 0.99 0.495 2 1 C1.01 1.495 1.01 1.495 0 2 C0 1.34 0 0.68 0 0 Z " fill="#0C0B0A" transform="translate(129,332)"/>
<path d="M0 0 C3 1 3 1 3 1 Z " fill="#0C0C0B" transform="translate(735,301)"/>
<path d="M0 0 C3 1 3 1 3 1 Z " fill="#0A0A0A" transform="translate(639,296)"/>
<path d="" fill="#0E0C0D" transform="translate(0,0)"/>
<path d="M0 0 C3 1 3 1 3 1 Z " fill="#0D0E0C" transform="translate(298,273)"/>
<path d="M0 0 C0.66 0 1.32 0 2 0 C1.67 0.66 1.34 1.32 1 2 C0.67 1.34 0.34 0.68 0 0 Z " fill="#0B0B0A" transform="translate(169,258)"/>
<path d="M0 0 C3 1 3 1 3 1 Z " fill="#0E0F0C" transform="translate(458,242)"/>
<path d="M0 0 C0.66 0 1.32 0 2 0 C1.67 0.66 1.34 1.32 1 2 C0.67 1.34 0.34 0.68 0 0 Z " fill="#0E0E0C" transform="translate(455,241)"/>
<path d="M0 0 C3 1 3 1 3 1 Z " fill="#100E0F" transform="translate(585,235)"/>
<path d="" fill="#0A0A0A" transform="translate(0,0)"/>
<path d="M0 0 C0.99 0.495 0.99 0.495 2 1 C1.01 1.495 1.01 1.495 0 2 C0 1.34 0 0.68 0 0 Z " fill="#0C0B0A" transform="translate(240,171)"/>
<path d="M0 0 C3 1 3 1 3 1 Z " fill="#0D0D0C" transform="translate(343,128)"/>
<path d="M0 0 C0.33 0.66 0.66 1.32 1 2 C0.34 1.67 -0.32 1.34 -1 1 C-0.67 0.67 -0.34 0.34 0 0 Z " fill="#0E0F0D" transform="translate(228,97)"/>
<path d="" fill="#121211" transform="translate(0,0)"/>
<path d="M0 0 C3 1 3 1 3 1 Z " fill="#161513" transform="translate(339,60)"/>
<path d="M0 0 C3 1 3 1 3 1 Z " fill="#151413" transform="translate(354,57)"/>
<path d="M0 0 C3 1 3 1 3 1 Z " fill="#171614" transform="translate(494,50)"/>
<path d="M0 0 C2 1 2 1 2 1 Z " fill="#161314" transform="translate(493,880)"/>
<path d="M0 0 C2 1 2 1 2 1 Z " fill="#141514" transform="translate(469,877)"/>
<path d="M0 0 C2 1 2 1 2 1 Z " fill="#151514" transform="translate(686,871)"/>
<path d="M0 0 C2 1 2 1 2 1 Z " fill="#131111" transform="translate(416,869)"/>
<path d="M0 0 C2 1 2 1 2 1 Z " fill="#11110F" transform="translate(412,868)"/>
<path d="M0 0 C2 1 2 1 2 1 Z " fill="#10100F" transform="translate(286,832)"/>
<path d="M0 0 C2 1 2 1 2 1 Z " fill="#0F1010" transform="translate(280,830)"/>
<path d="" fill="#0D100D" transform="translate(0,0)"/>
<path d="M0 0 C2 1 2 1 2 1 Z " fill="#0F0F0F" transform="translate(643,809)"/>
<path d="M0 0 C2 1 2 1 2 1 Z " fill="#0D0C0D" transform="translate(662,806)"/>
<path d="M0 0 C2 1 2 1 2 1 Z " fill="#0D0C0C" transform="translate(434,803)"/>
<path d="M0 0 C2 1 2 1 2 1 Z " fill="#0D0C0C" transform="translate(678,801)"/>
<path d="" fill="#0E0E0E" transform="translate(0,0)"/>
<path d="M0 0 C2 1 2 1 2 1 Z " fill="#0B0D0A" transform="translate(401,796)"/>
<path d="M0 0 C2 1 2 1 2 1 Z " fill="#0C0B0A" transform="translate(368,787)"/>
<path d="M0 0 C2 1 2 1 2 1 Z " fill="#0D0C0B" transform="translate(188,784)"/>
<path d="" fill="#0F0C0D" transform="translate(0,0)"/>
<path d="M0 0 C2 1 2 1 2 1 Z " fill="#0F0E0E" transform="translate(585,772)"/>
<path d="M0 0 C2 1 2 1 2 1 Z " fill="#0E0D0C" transform="translate(660,767)"/>
<path d="M0 0 C2 1 2 1 2 1 Z " fill="#0C0B0B" transform="translate(504,765)"/>
<path d="" fill="#0D0C0C" transform="translate(0,0)"/>
<path d="M0 0 C2 1 2 1 2 1 Z " fill="#0F0E0E" transform="translate(470,759)"/>
<path d="M0 0 C2 1 2 1 2 1 Z " fill="#0B0C09" transform="translate(772,756)"/>
<path d="" fill="#0A090A" transform="translate(0,0)"/>
<path d="" fill="#0A0C0B" transform="translate(0,0)"/>
<path d="" fill="#0C0C0B" transform="translate(0,0)"/>
<path d="M0 0 C2 1 2 1 2 1 Z " fill="#0B0A0B" transform="translate(214,721)"/>
<path d="" fill="#0B0B0A" transform="translate(0,0)"/>
<path d="M0 0 C2 1 2 1 2 1 Z " fill="#110F0F" transform="translate(600,707)"/>
<path d="M0 0 C2 1 2 1 2 1 Z " fill="#0A0C0B" transform="translate(630,705)"/>
<path d="M0 0 C2 1 2 1 2 1 Z " fill="#0C0C0B" transform="translate(627,705)"/>
<path d="M0 0 C2 1 2 1 2 1 Z " fill="#0A0A09" transform="translate(542,705)"/>
<path d="" fill="#0E0C0B" transform="translate(0,0)"/>
<path d="M0 0 C2 1 2 1 2 1 Z " fill="#0D0D0B" transform="translate(504,699)"/>
<path d="M0 0 C2 1 2 1 2 1 Z " fill="#0F0C0C" transform="translate(683,697)"/>
<path d="M0 0 C2 1 2 1 2 1 Z " fill="#0B0B0A" transform="translate(505,697)"/>
<path d="M0 0 C2 1 2 1 2 1 Z " fill="#0E0D0B" transform="translate(312,696)"/>
<path d="M0 0 C2 1 2 1 2 1 Z " fill="#0C0A0B" transform="translate(468,691)"/>
<path d="" fill="#0C0C0B" transform="translate(0,0)"/>
<path d="M0 0 C2 1 2 1 2 1 Z " fill="#0C0C0B" transform="translate(734,681)"/>
<path d="M0 0 C2 1 2 1 2 1 Z " fill="#0C0C0A" transform="translate(435,681)"/>
<path d="" fill="#0E0B0B" transform="translate(0,0)"/>
<path d="M0 0 C2 1 2 1 2 1 Z " fill="#0D0C0B" transform="translate(415,674)"/>
<path d="" fill="#0E0E0D" transform="translate(0,0)"/>
<path d="" fill="#0F0E0E" transform="translate(0,0)"/>
<path d="M0 0 C2 1 2 1 2 1 Z " fill="#0E0E0D" transform="translate(820,621)"/>
<path d="" fill="#0E0C0E" transform="translate(0,0)"/>
<path d="M0 0 C2 1 2 1 2 1 Z " fill="#0E0F0D" transform="translate(53,596)"/>
<path d="" fill="#100F0F" transform="translate(0,0)"/>
<path d="M0 0 C2 1 2 1 2 1 Z " fill="#11100F" transform="translate(783,568)"/>
<path d="M0 0 C2 1 2 1 2 1 Z " fill="#121010" transform="translate(639,568)"/>
<path d="M0 0 C2 1 2 1 2 1 Z " fill="#100F0F" transform="translate(391,568)"/>
<path d="" fill="#11100F" transform="translate(0,0)"/>
<path d="" fill="#121110" transform="translate(0,0)"/>
<path d="M0 0 C2 1 2 1 2 1 Z " fill="#131312" transform="translate(644,567)"/>
<path d="" fill="#0F1010" transform="translate(0,0)"/>
<path d="M0 0 C2 1 2 1 2 1 Z " fill="#0D0E0E" transform="translate(381,566)"/>
<path d="" fill="#0E0D0C" transform="translate(0,0)"/>
<path d="" fill="#100D0D" transform="translate(0,0)"/>
<path d="" fill="#0F0F0E" transform="translate(0,0)"/>
<path d="M0 0 C2 1 2 1 2 1 Z " fill="#0D0D0C" transform="translate(484,540)"/>
<path d="" fill="#111212" transform="translate(0,0)"/>
<path d="M0 0 C2 1 2 1 2 1 Z " fill="#0F0E0E" transform="translate(716,536)"/>
<path d="" fill="#0E0E0D" transform="translate(0,0)"/>
<path d="M0 0 C2 1 2 1 2 1 Z " fill="#0E0C0D" transform="translate(78,529)"/>
<path d="" fill="#0F0D0D" transform="translate(0,0)"/>
<path d="" fill="#100F0F" transform="translate(0,0)"/>
<path d="" fill="#0C0C0B" transform="translate(0,0)"/>
<path d="" fill="#0F0F0F" transform="translate(0,0)"/>
<path d="" fill="#0F0F10" transform="translate(0,0)"/>
<path d="" fill="#111011" transform="translate(0,0)"/>
<path d="" fill="#0F0F10" transform="translate(0,0)"/>
<path d="" fill="#101110" transform="translate(0,0)"/>
<path d="" fill="#100E0E" transform="translate(0,0)"/>
<path d="" fill="#0B0B0B" transform="translate(0,0)"/>
<path d="" fill="#0E0D0D" transform="translate(0,0)"/>
<path d="" fill="#0F0F10" transform="translate(0,0)"/>
<path d="" fill="#100F0F" transform="translate(0,0)"/>
<path d="M0 0 C2 1 2 1 2 1 Z " fill="#0F0E0C" transform="translate(763,457)"/>
<path d="" fill="#0B0B0B" transform="translate(0,0)"/>
<path d="M0 0 C2 1 2 1 2 1 Z " fill="#0C0C0C" transform="translate(131,448)"/>
<path d="M0 0 C2 1 2 1 2 1 Z " fill="#0D0E0C" transform="translate(436,444)"/>
<path d="" fill="#100D0D" transform="translate(0,0)"/>
<path d="M0 0 C2 1 2 1 2 1 Z " fill="#0D0D09" transform="translate(722,442)"/>
<path d="M0 0 C2 1 2 1 2 1 Z " fill="#0D0D0D" transform="translate(471,442)"/>
<path d="M0 0 C2 1 2 1 2 1 Z " fill="#0C0E0C" transform="translate(467,441)"/>
<path d="M0 0 C2 1 2 1 2 1 Z " fill="#0C0E0D" transform="translate(463,441)"/>
<path d="" fill="#0F1011" transform="translate(0,0)"/>
<path d="" fill="#0B0A0A" transform="translate(0,0)"/>
<path d="" fill="#111211" transform="translate(0,0)"/>
<path d="" fill="#0C0C0B" transform="translate(0,0)"/>
<path d="" fill="#0B0B0A" transform="translate(0,0)"/>
<path d="" fill="#131213" transform="translate(0,0)"/>
<path d="M0 0 C2 1 2 1 2 1 Z " fill="#0E0C0C" transform="translate(116,409)"/>
<path d="M0 0 C2 1 2 1 2 1 Z " fill="#0E0E0D" transform="translate(823,400)"/>
<path d="M0 0 C2 1 2 1 2 1 Z " fill="#100E0E" transform="translate(820,400)"/>
<path d="M0 0 C2 1 2 1 2 1 Z " fill="#110F0F" transform="translate(383,400)"/>
<path d="M0 0 C2 1 2 1 2 1 Z " fill="#100F0F" transform="translate(814,399)"/>
<path d="M0 0 C2 1 2 1 2 1 Z " fill="#090A0A" transform="translate(792,396)"/>
<path d="M0 0 C2 1 2 1 2 1 Z " fill="#0D0D0D" transform="translate(789,396)"/>
<path d="M0 0 C2 1 2 1 2 1 Z " fill="#0F0D0D" transform="translate(495,392)"/>
<path d="M0 0 C2 1 2 1 2 1 Z " fill="#0D0C0C" transform="translate(487,392)"/>
<path d="M0 0 C2 1 2 1 2 1 Z " fill="#0F0D0E" transform="translate(484,392)"/>
<path d="M0 0 C2 1 2 1 2 1 Z " fill="#0E100D" transform="translate(511,391)"/>
<path d="M0 0 C2 1 2 1 2 1 Z " fill="#0B0B0A" transform="translate(660,389)"/>
<path d="M0 0 C2 1 2 1 2 1 Z " fill="#100F10" transform="translate(569,389)"/>
<path d="" fill="#111010" transform="translate(0,0)"/>
<path d="" fill="#111211" transform="translate(0,0)"/>
<path d="" fill="#0F0F0F" transform="translate(0,0)"/>
<path d="M0 0 C2 1 2 1 2 1 Z " fill="#0C0D0C" transform="translate(358,345)"/>
<path d="" fill="#0A0B09" transform="translate(0,0)"/>
<path d="M0 0 C2 1 2 1 2 1 Z " fill="#0B0909" transform="translate(443,337)"/>
<path d="M0 0 C2 1 2 1 2 1 Z " fill="#09090B" transform="translate(485,334)"/>
<path d="" fill="#0F0E0D" transform="translate(0,0)"/>
<path d="M0 0 C2 1 2 1 2 1 Z " fill="#0E0F0D" transform="translate(351,320)"/>
<path d="M0 0 C2 1 2 1 2 1 Z " fill="#0C0B0B" transform="translate(357,318)"/>
<path d="M0 0 C2 1 2 1 2 1 Z " fill="#0D0E0D" transform="translate(792,310)"/>
<path d="M0 0 C2 1 2 1 2 1 Z " fill="#0B0B0C" transform="translate(252,307)"/>
<path d="M0 0 C2 1 2 1 2 1 Z " fill="#0C0C0B" transform="translate(445,304)"/>
<path d="M0 0 C2 1 2 1 2 1 Z " fill="#0D0D0C" transform="translate(754,303)"/>
<path d="M0 0 C2 1 2 1 2 1 Z " fill="#0B0B0A" transform="translate(720,300)"/>
<path d="M0 0 C2 1 2 1 2 1 Z " fill="#090A0A" transform="translate(655,296)"/>
<path d="M0 0 C2 1 2 1 2 1 Z " fill="#10100E" transform="translate(571,296)"/>
<path d="" fill="#0D0D0B" transform="translate(0,0)"/>
<path d="M0 0 C2 1 2 1 2 1 Z " fill="#0A0B09" transform="translate(273,289)"/>
<path d="" fill="#0E0E0E" transform="translate(0,0)"/>
<path d="" fill="#0D0D0C" transform="translate(0,0)"/>
<path d="M0 0 C2 1 2 1 2 1 Z " fill="#0B0B0A" transform="translate(323,250)"/>
<path d="M0 0 C2 1 2 1 2 1 Z " fill="#090908" transform="translate(754,242)"/>
<path d="M0 0 C2 1 2 1 2 1 Z " fill="#0E100E" transform="translate(462,241)"/>
<path d="M0 0 C2 1 2 1 2 1 Z " fill="#0C0B0C" transform="translate(509,238)"/>
<path d="M0 0 C2 1 2 1 2 1 Z " fill="#0F100F" transform="translate(546,236)"/>
<path d="M0 0 C2 1 2 1 2 1 Z " fill="#0D0C0C" transform="translate(223,192)"/>
<path d="M0 0 C2 1 2 1 2 1 Z " fill="#0D0D0D" transform="translate(224,189)"/>
<path d="" fill="#090808" transform="translate(0,0)"/>
<path d="M0 0 C2 1 2 1 2 1 Z " fill="#0D0C0B" transform="translate(728,184)"/>
<path d="M0 0 C2 1 2 1 2 1 Z " fill="#0C0D0B" transform="translate(719,175)"/>
<path d="M0 0 C2 1 2 1 2 1 Z " fill="#0D0C0C" transform="translate(241,173)"/>
<path d="" fill="#090807" transform="translate(0,0)"/>
<path d="" fill="#0B0A0A" transform="translate(0,0)"/>
<path d="" fill="#0D0C0D" transform="translate(0,0)"/>
<path d="M0 0 C2 1 2 1 2 1 Z " fill="#0A0B09" transform="translate(321,133)"/>
<path d="M0 0 C2 1 2 1 2 1 Z " fill="#111010" transform="translate(612,128)"/>
<path d="M0 0 C2 1 2 1 2 1 Z " fill="#11100E" transform="translate(606,127)"/>
<path d="M0 0 C2 1 2 1 2 1 Z " fill="#0F0F0E" transform="translate(553,119)"/>
<path d="" fill="#0E0E0E" transform="translate(0,0)"/>
<path d="M0 0 C2 1 2 1 2 1 Z " fill="#121210" transform="translate(528,117)"/>
<path d="M0 0 C2 1 2 1 2 1 Z " fill="#0E0F0E" transform="translate(524,117)"/>
<path d="M0 0 C2 1 2 1 2 1 Z " fill="#0F0E0E" transform="translate(512,116)"/>
<path d="M0 0 C2 1 2 1 2 1 Z " fill="#11110F" transform="translate(508,116)"/>
<path d="M0 0 C2 1 2 1 2 1 Z " fill="#10100F" transform="translate(442,116)"/>
<path d="" fill="#111212" transform="translate(0,0)"/>
<path d="M0 0 C2 1 2 1 2 1 Z " fill="#111212" transform="translate(236,89)"/>
<path d="M0 0 C2 1 2 1 2 1 Z " fill="#0F0E0D" transform="translate(683,81)"/>
<path d="M0 0 C2 1 2 1 2 1 Z " fill="#12120F" transform="translate(276,76)"/>
<path d="M0 0 C2 1 2 1 2 1 Z " fill="#111211" transform="translate(282,73)"/>
<path d="M0 0 C2 1 2 1 2 1 Z " fill="#131311" transform="translate(631,66)"/>
<path d="M0 0 C2 1 2 1 2 1 Z " fill="#171617" transform="translate(315,65)"/>
<path d="M0 0 C2 1 2 1 2 1 Z " fill="#161612" transform="translate(586,58)"/>
<path d="M0 0 C2 1 2 1 2 1 Z " fill="#161715" transform="translate(498,50)"/>
<path d="" fill="#151414" transform="translate(0,0)"/>
<path d="" fill="#282928" transform="translate(0,0)"/>
<path d="" fill="#141313" transform="translate(0,0)"/>
<path d="" fill="#151514" transform="translate(0,0)"/>
<path d="" fill="#171416" transform="translate(0,0)"/>
<path d="" fill="#151514" transform="translate(0,0)"/>
<path d="" fill="#131314" transform="translate(0,0)"/>
<path d="" fill="#151514" transform="translate(0,0)"/>
<path d="" fill="#121111" transform="translate(0,0)"/>
<path d="" fill="#111111" transform="translate(0,0)"/>
<path d="" fill="#131413" transform="translate(0,0)"/>
<path d="" fill="#161515" transform="translate(0,0)"/>
<path d="" fill="#10100F" transform="translate(0,0)"/>
<path d="" fill="#141313" transform="translate(0,0)"/>
<path d="" fill="#121110" transform="translate(0,0)"/>
<path d="" fill="#131412" transform="translate(0,0)"/>
<path d="" fill="#131310" transform="translate(0,0)"/>
<path d="" fill="#131111" transform="translate(0,0)"/>
<path d="" fill="#0E0C0C" transform="translate(0,0)"/>
<path d="" fill="#100F0E" transform="translate(0,0)"/>
<path d="" fill="#131111" transform="translate(0,0)"/>
<path d="" fill="#101110" transform="translate(0,0)"/>
<path d="" fill="#121112" transform="translate(0,0)"/>
<path d="" fill="#141312" transform="translate(0,0)"/>
<path d="" fill="#0C0D0B" transform="translate(0,0)"/>
<path d="" fill="#121110" transform="translate(0,0)"/>
<path d="" fill="#111011" transform="translate(0,0)"/>
<path d="" fill="#0F0D0E" transform="translate(0,0)"/>
<path d="" fill="#0F0D0B" transform="translate(0,0)"/>
<path d="" fill="#111012" transform="translate(0,0)"/>
<path d="" fill="#0E0D0C" transform="translate(0,0)"/>
<path d="" fill="#120F10" transform="translate(0,0)"/>
<path d="" fill="#111110" transform="translate(0,0)"/>
<path d="" fill="#140F10" transform="translate(0,0)"/>
<path d="" fill="#12100F" transform="translate(0,0)"/>
<path d="" fill="#121011" transform="translate(0,0)"/>
<path d="" fill="#100F0F" transform="translate(0,0)"/>
<path d="" fill="#0E0E0B" transform="translate(0,0)"/>
<path d="" fill="#121110" transform="translate(0,0)"/>
<path d="" fill="#10100F" transform="translate(0,0)"/>
<path d="" fill="#101310" transform="translate(0,0)"/>
<path d="" fill="#0D0E0C" transform="translate(0,0)"/>
<path d="" fill="#101010" transform="translate(0,0)"/>
<path d="" fill="#0F0F0C" transform="translate(0,0)"/>
<path d="" fill="#0F110F" transform="translate(0,0)"/>
<path d="" fill="#0E0F10" transform="translate(0,0)"/>
<path d="" fill="#10110F" transform="translate(0,0)"/>
<path d="" fill="#0F0E0D" transform="translate(0,0)"/>
<path d="" fill="#0C0B0D" transform="translate(0,0)"/>
<path d="" fill="#0C0B0B" transform="translate(0,0)"/>
<path d="" fill="#0D0D0C" transform="translate(0,0)"/>
<path d="" fill="#100E0E" transform="translate(0,0)"/>
<path d="" fill="#0F0D0B" transform="translate(0,0)"/>
<path d="" fill="#0D0E0A" transform="translate(0,0)"/>
<path d="" fill="#0A0A08" transform="translate(0,0)"/>
<path d="" fill="#0C0C0A" transform="translate(0,0)"/>
<path d="" fill="#0F0E0D" transform="translate(0,0)"/>
<path d="" fill="#0E0D0C" transform="translate(0,0)"/>
<path d="" fill="#0D0D0C" transform="translate(0,0)"/>
<path d="" fill="#0E0E0D" transform="translate(0,0)"/>
<path d="" fill="#11100D" transform="translate(0,0)"/>
<path d="" fill="#111010" transform="translate(0,0)"/>
<path d="" fill="#11100E" transform="translate(0,0)"/>
<path d="" fill="#10100F" transform="translate(0,0)"/>
<path d="" fill="#0B0A0A" transform="translate(0,0)"/>
<path d="" fill="#0D0D0B" transform="translate(0,0)"/>
<path d="" fill="#10100D" transform="translate(0,0)"/>
<path d="" fill="#090807" transform="translate(0,0)"/>
<path d="" fill="#0F0E0C" transform="translate(0,0)"/>
<path d="" fill="#0E0E0D" transform="translate(0,0)"/>
<path d="" fill="#0F0C0E" transform="translate(0,0)"/>
<path d="" fill="#0A0A08" transform="translate(0,0)"/>
<path d="" fill="#0C0D0B" transform="translate(0,0)"/>
<path d="" fill="#0D0E0D" transform="translate(0,0)"/>
<path d="" fill="#0B0C0C" transform="translate(0,0)"/>
<path d="" fill="#0E0D0C" transform="translate(0,0)"/>
<path d="" fill="#0F0F0D" transform="translate(0,0)"/>
<path d="" fill="#0E0D0C" transform="translate(0,0)"/>
<path d="" fill="#0F0F0E" transform="translate(0,0)"/>
<path d="" fill="#0F0B0B" transform="translate(0,0)"/>
<path d="" fill="#0F0A0B" transform="translate(0,0)"/>
<path d="" fill="#0E0C0D" transform="translate(0,0)"/>
<path d="" fill="#0F0E0C" transform="translate(0,0)"/>
<path d="" fill="#0B0909" transform="translate(0,0)"/>
<path d="" fill="#100E0D" transform="translate(0,0)"/>
<path d="" fill="#0B0C0E" transform="translate(0,0)"/>
<path d="" fill="#0A0D09" transform="translate(0,0)"/>
<path d="" fill="#0C0C0C" transform="translate(0,0)"/>
<path d="" fill="#0D0D0D" transform="translate(0,0)"/>
<path d="" fill="#100F0D" transform="translate(0,0)"/>
<path d="" fill="#0E0F0C" transform="translate(0,0)"/>
<path d="" fill="#080906" transform="translate(0,0)"/>
<path d="" fill="#0E0F0E" transform="translate(0,0)"/>
<path d="" fill="#0E110C" transform="translate(0,0)"/>
<path d="" fill="#0E0D0D" transform="translate(0,0)"/>
<path d="" fill="#090807" transform="translate(0,0)"/>
<path d="" fill="#0D0C0C" transform="translate(0,0)"/>
<path d="" fill="#0F0F10" transform="translate(0,0)"/>
<path d="" fill="#111111" transform="translate(0,0)"/>
<path d="" fill="#0E0D0B" transform="translate(0,0)"/>
<path d="" fill="#0C0B09" transform="translate(0,0)"/>
<path d="" fill="#100F0F" transform="translate(0,0)"/>
<path d="" fill="#0E0D0C" transform="translate(0,0)"/>
<path d="" fill="#0A0909" transform="translate(0,0)"/>
<path d="" fill="#0C0D0C" transform="translate(0,0)"/>
<path d="" fill="#120F0F" transform="translate(0,0)"/>
<path d="" fill="#0E0D0C" transform="translate(0,0)"/>
<path d="" fill="#0F0E0C" transform="translate(0,0)"/>
<path d="" fill="#0E0F0F" transform="translate(0,0)"/>
<path d="" fill="#101011" transform="translate(0,0)"/>
<path d="" fill="#100F0F" transform="translate(0,0)"/>
<path d="" fill="#100E0F" transform="translate(0,0)"/>
<path d="" fill="#0D0C0B" transform="translate(0,0)"/>
<path d="" fill="#0E0D0D" transform="translate(0,0)"/>
<path d="" fill="#0C0E0B" transform="translate(0,0)"/>
<path d="" fill="#0E0C0B" transform="translate(0,0)"/>
<path d="" fill="#0E0F0C" transform="translate(0,0)"/>
<path d="" fill="#0E0D0F" transform="translate(0,0)"/>
<path d="" fill="#090809" transform="translate(0,0)"/>
<path d="" fill="#0F0F0E" transform="translate(0,0)"/>
<path d="" fill="#141211" transform="translate(0,0)"/>
<path d="" fill="#0D0E0D" transform="translate(0,0)"/>
<path d="" fill="#0D0D0A" transform="translate(0,0)"/>
<path d="" fill="#0E0E0C" transform="translate(0,0)"/>
<path d="" fill="#0C0D0B" transform="translate(0,0)"/>
<path d="" fill="#0B0C0B" transform="translate(0,0)"/>
<path d="" fill="#0B0A08" transform="translate(0,0)"/>
<path d="" fill="#0D0D0E" transform="translate(0,0)"/>
<path d="" fill="#11100E" transform="translate(0,0)"/>
<path d="" fill="#0E0D0C" transform="translate(0,0)"/>
<path d="" fill="#100F0E" transform="translate(0,0)"/>
<path d="" fill="#0E0E0C" transform="translate(0,0)"/>
<path d="" fill="#0F0F0D" transform="translate(0,0)"/>
<path d="" fill="#0F0F0E" transform="translate(0,0)"/>
<path d="" fill="#0E100F" transform="translate(0,0)"/>
<path d="" fill="#101211" transform="translate(0,0)"/>
<path d="" fill="#090707" transform="translate(0,0)"/>
<path d="" fill="#0B0B0A" transform="translate(0,0)"/>
<path d="" fill="#0E0D0D" transform="translate(0,0)"/>
<path d="" fill="#0B0B0B" transform="translate(0,0)"/>
<path d="" fill="#0E0D0C" transform="translate(0,0)"/>
<path d="" fill="#110D0C" transform="translate(0,0)"/>
<path d="" fill="#0A0A07" transform="translate(0,0)"/>
<path d="" fill="#0C0D0D" transform="translate(0,0)"/>
<path d="" fill="#090909" transform="translate(0,0)"/>
<path d="" fill="#0A0806" transform="translate(0,0)"/>
<path d="" fill="#0D0E0A" transform="translate(0,0)"/>
<path d="" fill="#0F0E0F" transform="translate(0,0)"/>
<path d="" fill="#100C0C" transform="translate(0,0)"/>
<path d="" fill="#0B0C09" transform="translate(0,0)"/>
<path d="" fill="#060604" transform="translate(0,0)"/>
<path d="" fill="#0B0A08" transform="translate(0,0)"/>
<path d="" fill="#0E0E0C" transform="translate(0,0)"/>
<path d="" fill="#0E0F0D" transform="translate(0,0)"/>
<path d="" fill="#0C0B0C" transform="translate(0,0)"/>
<path d="" fill="#0D0B0B" transform="translate(0,0)"/>
<path d="" fill="#100E0C" transform="translate(0,0)"/>
<path d="" fill="#101010" transform="translate(0,0)"/>
<path d="" fill="#0D0C0C" transform="translate(0,0)"/>
<path d="" fill="#0F0C0B" transform="translate(0,0)"/>
<path d="" fill="#0B0B0A" transform="translate(0,0)"/>
<path d="" fill="#0D0C0D" transform="translate(0,0)"/>
<path d="" fill="#0D0D0B" transform="translate(0,0)"/>
<path d="" fill="#0A0B0A" transform="translate(0,0)"/>
<path d="" fill="#0C0D0D" transform="translate(0,0)"/>
<path d="" fill="#0D0D0E" transform="translate(0,0)"/>
<path d="" fill="#0C0C0A" transform="translate(0,0)"/>
<path d="" fill="#0F0E0F" transform="translate(0,0)"/>
<path d="" fill="#0B090A" transform="translate(0,0)"/>
<path d="" fill="#070806" transform="translate(0,0)"/>
<path d="" fill="#0A0B07" transform="translate(0,0)"/>
<path d="" fill="#0C0B0B" transform="translate(0,0)"/>
<path d="" fill="#0E0E0E" transform="translate(0,0)"/>
<path d="" fill="#0C0C0D" transform="translate(0,0)"/>
<path d="" fill="#080A07" transform="translate(0,0)"/>
<path d="" fill="#0E0D0B" transform="translate(0,0)"/>
<path d="" fill="#0B0C0A" transform="translate(0,0)"/>
<path d="" fill="#0B0B09" transform="translate(0,0)"/>
<path d="" fill="#110F0D" transform="translate(0,0)"/>
<path d="" fill="#0E0E0B" transform="translate(0,0)"/>
<path d="" fill="#0C0B09" transform="translate(0,0)"/>
<path d="" fill="#0C0C0A" transform="translate(0,0)"/>
<path d="" fill="#0B0B0A" transform="translate(0,0)"/>
<path d="" fill="#0C0C0C" transform="translate(0,0)"/>
<path d="" fill="#0C0C0B" transform="translate(0,0)"/>
<path d="" fill="#060603" transform="translate(0,0)"/>
<path d="" fill="#0C0D0D" transform="translate(0,0)"/>
<path d="" fill="#0B0E0C" transform="translate(0,0)"/>
<path d="" fill="#0A0A08" transform="translate(0,0)"/>
<path d="" fill="#0B090A" transform="translate(0,0)"/>
<path d="" fill="#11120F" transform="translate(0,0)"/>
<path d="" fill="#0E0D0D" transform="translate(0,0)"/>
<path d="" fill="#0E0E0E" transform="translate(0,0)"/>
<path d="" fill="#0C0E0C" transform="translate(0,0)"/>
<path d="" fill="#0C0C08" transform="translate(0,0)"/>
<path d="" fill="#0F0E0E" transform="translate(0,0)"/>
<path d="" fill="#0A0908" transform="translate(0,0)"/>
<path d="" fill="#0B0D0A" transform="translate(0,0)"/>
<path d="" fill="#0C0A0B" transform="translate(0,0)"/>
<path d="" fill="#0F0E0D" transform="translate(0,0)"/>
<path d="" fill="#0A0909" transform="translate(0,0)"/>
<path d="" fill="#0E0C0F" transform="translate(0,0)"/>
<path d="" fill="#080908" transform="translate(0,0)"/>
<path d="" fill="#0C0F0D" transform="translate(0,0)"/>
<path d="" fill="#0C0E0E" transform="translate(0,0)"/>
<path d="" fill="#0D0F0B" transform="translate(0,0)"/>
<path d="" fill="#0C0B0B" transform="translate(0,0)"/>
<path d="" fill="#0D0D0C" transform="translate(0,0)"/>
<path d="" fill="#0C0C0B" transform="translate(0,0)"/>
<path d="" fill="#0B0E0B" transform="translate(0,0)"/>
<path d="" fill="#0F0E0E" transform="translate(0,0)"/>
<path d="" fill="#0D0C0B" transform="translate(0,0)"/>
<path d="" fill="#0E0F0D" transform="translate(0,0)"/>
<path d="" fill="#0C0A0A" transform="translate(0,0)"/>
<path d="" fill="#0E0B09" transform="translate(0,0)"/>
<path d="" fill="#0C0B0C" transform="translate(0,0)"/>
<path d="" fill="#090C09" transform="translate(0,0)"/>
<path d="" fill="#0E0F0D" transform="translate(0,0)"/>
<path d="" fill="#0B0C0C" transform="translate(0,0)"/>
<path d="" fill="#0B0C0C" transform="translate(0,0)"/>
<path d="" fill="#0B0C0B" transform="translate(0,0)"/>
<path d="" fill="#0E0F0D" transform="translate(0,0)"/>
<path d="" fill="#0E0E0E" transform="translate(0,0)"/>
<path d="" fill="#10110F" transform="translate(0,0)"/>
<path d="" fill="#0B0B0B" transform="translate(0,0)"/>
<path d="" fill="#080607" transform="translate(0,0)"/>
<path d="" fill="#0E0E0D" transform="translate(0,0)"/>
<path d="" fill="#0C0B0C" transform="translate(0,0)"/>
<path d="" fill="#0C0E0A" transform="translate(0,0)"/>
<path d="" fill="#0C0C0A" transform="translate(0,0)"/>
<path d="" fill="#0C0D0D" transform="translate(0,0)"/>
<path d="" fill="#0C0C0B" transform="translate(0,0)"/>
<path d="" fill="#0E100F" transform="translate(0,0)"/>
<path d="" fill="#111110" transform="translate(0,0)"/>
<path d="" fill="#0C0D0B" transform="translate(0,0)"/>
<path d="" fill="#100F0D" transform="translate(0,0)"/>
<path d="" fill="#0F1010" transform="translate(0,0)"/>
<path d="" fill="#100E0D" transform="translate(0,0)"/>
<path d="" fill="#0D0E0C" transform="translate(0,0)"/>
<path d="" fill="#0B0B0B" transform="translate(0,0)"/>
<path d="" fill="#101112" transform="translate(0,0)"/>
<path d="" fill="#0E0D0C" transform="translate(0,0)"/>
<path d="" fill="#131112" transform="translate(0,0)"/>
<path d="" fill="#11100F" transform="translate(0,0)"/>
<path d="" fill="#11100D" transform="translate(0,0)"/>
<path d="" fill="#101110" transform="translate(0,0)"/>
<path d="" fill="#10100D" transform="translate(0,0)"/>
<path d="" fill="#100F0F" transform="translate(0,0)"/>
<path d="" fill="#0D0F0E" transform="translate(0,0)"/>
<path d="" fill="#0F0E0D" transform="translate(0,0)"/>
<path d="" fill="#090A09" transform="translate(0,0)"/>
<path d="" fill="#0F0D0C" transform="translate(0,0)"/>
<path d="" fill="#111111" transform="translate(0,0)"/>
<path d="" fill="#0F0F0F" transform="translate(0,0)"/>
<path d="" fill="#111111" transform="translate(0,0)"/>
<path d="" fill="#111111" transform="translate(0,0)"/>
<path d="" fill="#0E0D0E" transform="translate(0,0)"/>
<path d="" fill="#101010" transform="translate(0,0)"/>
<path d="" fill="#100E0F" transform="translate(0,0)"/>
<path d="" fill="#12110F" transform="translate(0,0)"/>
<path d="" fill="#121112" transform="translate(0,0)"/>
<path d="" fill="#0F0F0B" transform="translate(0,0)"/>
<path d="" fill="#110F0E" transform="translate(0,0)"/>
<path d="" fill="#121011" transform="translate(0,0)"/>
<path d="" fill="#11110F" transform="translate(0,0)"/>
<path d="" fill="#121110" transform="translate(0,0)"/>
<path d="" fill="#100F0D" transform="translate(0,0)"/>
<path d="" fill="#0E0E0E" transform="translate(0,0)"/>
<path d="" fill="#100E0D" transform="translate(0,0)"/>
<path d="" fill="#111111" transform="translate(0,0)"/>
<path d="" fill="#0F110E" transform="translate(0,0)"/>
<path d="" fill="#121011" transform="translate(0,0)"/>
<path d="" fill="#0F100D" transform="translate(0,0)"/>
<path d="" fill="#121010" transform="translate(0,0)"/>
<path d="" fill="#131111" transform="translate(0,0)"/>
<path d="" fill="#141411" transform="translate(0,0)"/>
<path d="" fill="#120F10" transform="translate(0,0)"/>
<path d="" fill="#131010" transform="translate(0,0)"/>
<path d="" fill="#151313" transform="translate(0,0)"/>
<path d="" fill="#100E0E" transform="translate(0,0)"/>
<path d="" fill="#121111" transform="translate(0,0)"/>
<path d="" fill="#101010" transform="translate(0,0)"/>
<path d="" fill="#0F0F0C" transform="translate(0,0)"/>
<path d="" fill="#121212" transform="translate(0,0)"/>
<path d="" fill="#101010" transform="translate(0,0)"/>
<path d="" fill="#131312" transform="translate(0,0)"/>
<path d="" fill="#111210" transform="translate(0,0)"/>
<path d="" fill="#100F0F" transform="translate(0,0)"/>
<path d="" fill="#101110" transform="translate(0,0)"/>
<path d="" fill="#100E0F" transform="translate(0,0)"/>
<path d="" fill="#101011" transform="translate(0,0)"/>
<path d="" fill="#111011" transform="translate(0,0)"/>
<path d="" fill="#12100F" transform="translate(0,0)"/>
<path d="" fill="#0B0D08" transform="translate(0,0)"/>
<path d="" fill="#0E0D0C" transform="translate(0,0)"/>
<path d="" fill="#110F10" transform="translate(0,0)"/>
<path d="" fill="#10100F" transform="translate(0,0)"/>
<path d="" fill="#0E0F10" transform="translate(0,0)"/>
<path d="" fill="#100E0D" transform="translate(0,0)"/>
<path d="" fill="#111010" transform="translate(0,0)"/>
<path d="" fill="#111110" transform="translate(0,0)"/>
<path d="" fill="#0F0E0C" transform="translate(0,0)"/>
<path d="" fill="#0E0E0D" transform="translate(0,0)"/>
<path d="" fill="#110E0E" transform="translate(0,0)"/>
<path d="" fill="#0D0C0E" transform="translate(0,0)"/>
<path d="" fill="#11110F" transform="translate(0,0)"/>
<path d="" fill="#111011" transform="translate(0,0)"/>
<path d="" fill="#0F0F0F" transform="translate(0,0)"/>
<path d="" fill="#10110E" transform="translate(0,0)"/>
<path d="" fill="#100F0F" transform="translate(0,0)"/>
<path d="" fill="#0F0F0E" transform="translate(0,0)"/>
<path d="" fill="#11100F" transform="translate(0,0)"/>
<path d="" fill="#0E0F0E" transform="translate(0,0)"/>
<path d="" fill="#0E0F0E" transform="translate(0,0)"/>
<path d="" fill="#0A0C0C" transform="translate(0,0)"/>
<path d="" fill="#0B0A0B" transform="translate(0,0)"/>
<path d="" fill="#11110D" transform="translate(0,0)"/>
<path d="" fill="#0D0C0C" transform="translate(0,0)"/>
<path d="" fill="#0F100F" transform="translate(0,0)"/>
<path d="" fill="#10100E" transform="translate(0,0)"/>
<path d="" fill="#0D0D0D" transform="translate(0,0)"/>
<path d="" fill="#0E0F0D" transform="translate(0,0)"/>
<path d="" fill="#0E0E0F" transform="translate(0,0)"/>
<path d="" fill="#111011" transform="translate(0,0)"/>
<path d="" fill="#101010" transform="translate(0,0)"/>
<path d="" fill="#100E0E" transform="translate(0,0)"/>
<path d="" fill="#0B0B0B" transform="translate(0,0)"/>
<path d="" fill="#0E0E0D" transform="translate(0,0)"/>
<path d="" fill="#100E10" transform="translate(0,0)"/>
<path d="" fill="#0D0C0A" transform="translate(0,0)"/>
<path d="" fill="#0E0D0E" transform="translate(0,0)"/>
<path d="" fill="#0F0E0D" transform="translate(0,0)"/>
<path d="" fill="#0E0F0E" transform="translate(0,0)"/>
<path d="" fill="#0E0D0D" transform="translate(0,0)"/>
<path d="" fill="#090908" transform="translate(0,0)"/>
<path d="" fill="#0F100D" transform="translate(0,0)"/>
<path d="" fill="#0E0E0B" transform="translate(0,0)"/>
<path d="" fill="#101111" transform="translate(0,0)"/>
<path d="" fill="#0E0D0F" transform="translate(0,0)"/>
<path d="" fill="#101010" transform="translate(0,0)"/>
<path d="" fill="#080A0B" transform="translate(0,0)"/>
<path d="" fill="#0D0D0C" transform="translate(0,0)"/>
<path d="" fill="#100E0D" transform="translate(0,0)"/>
<path d="" fill="#0F0D0C" transform="translate(0,0)"/>
<path d="" fill="#0F0E0E" transform="translate(0,0)"/>
<path d="" fill="#100F0E" transform="translate(0,0)"/>
<path d="" fill="#121111" transform="translate(0,0)"/>
<path d="" fill="#0E0C0E" transform="translate(0,0)"/>
<path d="" fill="#0F0E0D" transform="translate(0,0)"/>
<path d="" fill="#0C0D0D" transform="translate(0,0)"/>
<path d="" fill="#100F0E" transform="translate(0,0)"/>
<path d="" fill="#0D0D0D" transform="translate(0,0)"/>
<path d="" fill="#0D0C0D" transform="translate(0,0)"/>
<path d="" fill="#0A0A0B" transform="translate(0,0)"/>
<path d="" fill="#0E0E0E" transform="translate(0,0)"/>
<path d="" fill="#0E0D0E" transform="translate(0,0)"/>
<path d="" fill="#0E0E0E" transform="translate(0,0)"/>
<path d="" fill="#0E0E0E" transform="translate(0,0)"/>
<path d="" fill="#0D0C0B" transform="translate(0,0)"/>
<path d="" fill="#0B0A0A" transform="translate(0,0)"/>
<path d="" fill="#0A0B08" transform="translate(0,0)"/>
<path d="" fill="#100C0B" transform="translate(0,0)"/>
<path d="" fill="#100F0D" transform="translate(0,0)"/>
<path d="" fill="#0F0E0E" transform="translate(0,0)"/>
<path d="" fill="#0E0E0E" transform="translate(0,0)"/>
<path d="" fill="#0F0F0D" transform="translate(0,0)"/>
<path d="" fill="#0C0C0C" transform="translate(0,0)"/>
<path d="" fill="#10100E" transform="translate(0,0)"/>
<path d="" fill="#131313" transform="translate(0,0)"/>
<path d="" fill="#0D0C0E" transform="translate(0,0)"/>
<path d="" fill="#0C0A0A" transform="translate(0,0)"/>
<path d="" fill="#0F0E0D" transform="translate(0,0)"/>
<path d="" fill="#0C0B0D" transform="translate(0,0)"/>
<path d="" fill="#110F12" transform="translate(0,0)"/>
<path d="" fill="#0F0F0F" transform="translate(0,0)"/>
<path d="" fill="#0E0E0D" transform="translate(0,0)"/>
<path d="" fill="#0C0C0A" transform="translate(0,0)"/>
<path d="" fill="#100F0E" transform="translate(0,0)"/>
<path d="" fill="#131212" transform="translate(0,0)"/>
<path d="" fill="#0D0E0B" transform="translate(0,0)"/>
<path d="" fill="#0C0B0A" transform="translate(0,0)"/>
<path d="" fill="#0E0E0B" transform="translate(0,0)"/>
<path d="" fill="#0A0A09" transform="translate(0,0)"/>
<path d="" fill="#0D0E0D" transform="translate(0,0)"/>
<path d="" fill="#0E0D0B" transform="translate(0,0)"/>
<path d="" fill="#0D0D0D" transform="translate(0,0)"/>
<path d="" fill="#0E0E0E" transform="translate(0,0)"/>
<path d="" fill="#0E0D0F" transform="translate(0,0)"/>
<path d="" fill="#0C0C0C" transform="translate(0,0)"/>
<path d="" fill="#121012" transform="translate(0,0)"/>
<path d="" fill="#0F0E0E" transform="translate(0,0)"/>
<path d="" fill="#09090A" transform="translate(0,0)"/>
<path d="" fill="#0C0C0B" transform="translate(0,0)"/>
<path d="" fill="#0D0C0C" transform="translate(0,0)"/>
<path d="" fill="#0E0D0E" transform="translate(0,0)"/>
<path d="" fill="#0F0C0D" transform="translate(0,0)"/>
<path d="" fill="#0C0B0B" transform="translate(0,0)"/>
<path d="" fill="#0D0E0A" transform="translate(0,0)"/>
<path d="" fill="#10100E" transform="translate(0,0)"/>
<path d="" fill="#0A0809" transform="translate(0,0)"/>
<path d="" fill="#0D0D0A" transform="translate(0,0)"/>
<path d="" fill="#0D0D0B" transform="translate(0,0)"/>
<path d="" fill="#0F0D0D" transform="translate(0,0)"/>
<path d="" fill="#090807" transform="translate(0,0)"/>
<path d="" fill="#0E0B0C" transform="translate(0,0)"/>
<path d="" fill="#0D0D0B" transform="translate(0,0)"/>
<path d="" fill="#0B0A09" transform="translate(0,0)"/>
<path d="" fill="#0F1010" transform="translate(0,0)"/>
<path d="" fill="#0F0D0C" transform="translate(0,0)"/>
<path d="" fill="#0C0A0B" transform="translate(0,0)"/>
<path d="" fill="#0C0C0C" transform="translate(0,0)"/>
<path d="" fill="#0F0D0B" transform="translate(0,0)"/>
<path d="" fill="#0D0E0B" transform="translate(0,0)"/>
<path d="" fill="#0C0B0B" transform="translate(0,0)"/>
<path d="" fill="#0D0D0D" transform="translate(0,0)"/>
<path d="" fill="#0D0B0A" transform="translate(0,0)"/>
<path d="" fill="#0E0E0C" transform="translate(0,0)"/>
<path d="" fill="#0C0C0A" transform="translate(0,0)"/>
<path d="" fill="#0D0C0B" transform="translate(0,0)"/>
<path d="" fill="#0D0D0C" transform="translate(0,0)"/>
<path d="" fill="#0D0D0C" transform="translate(0,0)"/>
<path d="" fill="#0D0E0A" transform="translate(0,0)"/>
<path d="" fill="#0C0C0A" transform="translate(0,0)"/>
<path d="" fill="#0E0F0E" transform="translate(0,0)"/>
<path d="" fill="#0F0F10" transform="translate(0,0)"/>
<path d="" fill="#100E0F" transform="translate(0,0)"/>
<path d="" fill="#0D0B0B" transform="translate(0,0)"/>
<path d="" fill="#0D0D0E" transform="translate(0,0)"/>
<path d="" fill="#0C090B" transform="translate(0,0)"/>
<path d="" fill="#131111" transform="translate(0,0)"/>
<path d="" fill="#100F0F" transform="translate(0,0)"/>
<path d="" fill="#0E0D0F" transform="translate(0,0)"/>
<path d="" fill="#121413" transform="translate(0,0)"/>
<path d="" fill="#0E0E0D" transform="translate(0,0)"/>
<path d="" fill="#0D0C0A" transform="translate(0,0)"/>
<path d="" fill="#0D0D0E" transform="translate(0,0)"/>
<path d="" fill="#100F0E" transform="translate(0,0)"/>
<path d="" fill="#0F0E0E" transform="translate(0,0)"/>
<path d="" fill="#0B0B0A" transform="translate(0,0)"/>
<path d="" fill="#0B0C0B" transform="translate(0,0)"/>
<path d="" fill="#10100F" transform="translate(0,0)"/>
<path d="" fill="#0F0C0B" transform="translate(0,0)"/>
<path d="" fill="#0D0C0F" transform="translate(0,0)"/>
<path d="" fill="#0D0E0D" transform="translate(0,0)"/>
<path d="" fill="#0C0C0B" transform="translate(0,0)"/>
<path d="" fill="#0F0E0E" transform="translate(0,0)"/>
<path d="" fill="#0F0F11" transform="translate(0,0)"/>
<path d="" fill="#11100F" transform="translate(0,0)"/>
<path d="" fill="#101110" transform="translate(0,0)"/>
<path d="" fill="#141513" transform="translate(0,0)"/>
<path d="" fill="#0E0E0E" transform="translate(0,0)"/>
<path d="" fill="#111110" transform="translate(0,0)"/>
<path d="" fill="#0F0E0E" transform="translate(0,0)"/>
<path d="" fill="#0B0E0E" transform="translate(0,0)"/>
<path d="" fill="#111210" transform="translate(0,0)"/>
<path d="" fill="#0F0E0F" transform="translate(0,0)"/>
<path d="" fill="#0E0D0D" transform="translate(0,0)"/>
<path d="" fill="#0D0C0D" transform="translate(0,0)"/>
<path d="" fill="#0D0D0C" transform="translate(0,0)"/>
<path d="" fill="#0E0C0B" transform="translate(0,0)"/>
<path d="" fill="#0E0E0C" transform="translate(0,0)"/>
<path d="" fill="#0D0C0B" transform="translate(0,0)"/>
<path d="" fill="#0C0A0B" transform="translate(0,0)"/>
<path d="" fill="#080705" transform="translate(0,0)"/>
<path d="" fill="#0C0E0E" transform="translate(0,0)"/>
<path d="" fill="#0C0A0A" transform="translate(0,0)"/>
<path d="" fill="#070706" transform="translate(0,0)"/>
<path d="" fill="#0B0C0B" transform="translate(0,0)"/>
<path d="" fill="#0D0D0E" transform="translate(0,0)"/>
<path d="" fill="#0F0E0F" transform="translate(0,0)"/>
<path d="" fill="#0F0E0D" transform="translate(0,0)"/>
<path d="" fill="#10100F" transform="translate(0,0)"/>
<path d="" fill="#100F0E" transform="translate(0,0)"/>
<path d="" fill="#0C0C0B" transform="translate(0,0)"/>
<path d="" fill="#0E0C0B" transform="translate(0,0)"/>
<path d="" fill="#100E0D" transform="translate(0,0)"/>
<path d="" fill="#0E0C0D" transform="translate(0,0)"/>
<path d="" fill="#0A0D0B" transform="translate(0,0)"/>
<path d="" fill="#0E0E0A" transform="translate(0,0)"/>
<path d="" fill="#0D0E0D" transform="translate(0,0)"/>
<path d="" fill="#10110F" transform="translate(0,0)"/>
<path d="" fill="#11120E" transform="translate(0,0)"/>
<path d="" fill="#0F0E10" transform="translate(0,0)"/>
<path d="" fill="#111010" transform="translate(0,0)"/>
<path d="" fill="#0F0C0E" transform="translate(0,0)"/>
<path d="" fill="#080709" transform="translate(0,0)"/>
<path d="" fill="#111311" transform="translate(0,0)"/>
<path d="" fill="#121311" transform="translate(0,0)"/>
<path d="" fill="#0B090A" transform="translate(0,0)"/>
<path d="" fill="#0C0C0B" transform="translate(0,0)"/>
<path d="" fill="#0B0909" transform="translate(0,0)"/>
<path d="" fill="#0E0D0C" transform="translate(0,0)"/>
<path d="" fill="#0F0C0C" transform="translate(0,0)"/>
<path d="" fill="#121111" transform="translate(0,0)"/>
<path d="" fill="#0B0B0A" transform="translate(0,0)"/>
<path d="" fill="#0C0D0C" transform="translate(0,0)"/>
<path d="" fill="#0D0D0D" transform="translate(0,0)"/>
<path d="" fill="#0A0C0A" transform="translate(0,0)"/>
<path d="" fill="#0E0D0C" transform="translate(0,0)"/>
<path d="" fill="#0B0A0B" transform="translate(0,0)"/>
<path d="" fill="#0C0C0B" transform="translate(0,0)"/>
<path d="" fill="#0D0A08" transform="translate(0,0)"/>
<path d="" fill="#0B0B0B" transform="translate(0,0)"/>
<path d="" fill="#0F0E0C" transform="translate(0,0)"/>
<path d="" fill="#0E0C0B" transform="translate(0,0)"/>
<path d="" fill="#0D0C0C" transform="translate(0,0)"/>
<path d="" fill="#070A08" transform="translate(0,0)"/>
<path d="" fill="#0D0E0B" transform="translate(0,0)"/>
<path d="" fill="#0D0C0B" transform="translate(0,0)"/>
<path d="" fill="#0B0A09" transform="translate(0,0)"/>
<path d="" fill="#090808" transform="translate(0,0)"/>
<path d="" fill="#0D0C0C" transform="translate(0,0)"/>
<path d="" fill="#0C0D09" transform="translate(0,0)"/>
<path d="" fill="#0C0C0A" transform="translate(0,0)"/>
<path d="" fill="#0C0D0B" transform="translate(0,0)"/>
<path d="" fill="#090A09" transform="translate(0,0)"/>
<path d="" fill="#0B0B0B" transform="translate(0,0)"/>
<path d="" fill="#0B0B0B" transform="translate(0,0)"/>
<path d="" fill="#0C0B0C" transform="translate(0,0)"/>
<path d="" fill="#0C0C0C" transform="translate(0,0)"/>
<path d="" fill="#080807" transform="translate(0,0)"/>
<path d="" fill="#090B08" transform="translate(0,0)"/>
<path d="" fill="#0C0C0A" transform="translate(0,0)"/>
<path d="" fill="#0B0E0B" transform="translate(0,0)"/>
<path d="" fill="#111210" transform="translate(0,0)"/>
<path d="" fill="#0E0D0C" transform="translate(0,0)"/>
<path d="" fill="#0D0C0B" transform="translate(0,0)"/>
<path d="" fill="#0B0C0C" transform="translate(0,0)"/>
<path d="" fill="#0B0B09" transform="translate(0,0)"/>
<path d="" fill="#09090A" transform="translate(0,0)"/>
<path d="" fill="#0A0C0B" transform="translate(0,0)"/>
<path d="" fill="#090708" transform="translate(0,0)"/>
<path d="" fill="#0D0B0B" transform="translate(0,0)"/>
<path d="" fill="#070806" transform="translate(0,0)"/>
<path d="" fill="#0A0A0A" transform="translate(0,0)"/>
<path d="" fill="#0C0B09" transform="translate(0,0)"/>
<path d="" fill="#0B0B0A" transform="translate(0,0)"/>
<path d="" fill="#0D0C0C" transform="translate(0,0)"/>
<path d="" fill="#0C0B09" transform="translate(0,0)"/>
<path d="" fill="#0A0907" transform="translate(0,0)"/>
<path d="" fill="#0B0C0C" transform="translate(0,0)"/>
<path d="" fill="#0A0B0B" transform="translate(0,0)"/>
<path d="" fill="#0E0D0D" transform="translate(0,0)"/>
<path d="" fill="#0C0B0C" transform="translate(0,0)"/>
<path d="" fill="#0C0C09" transform="translate(0,0)"/>
<path d="" fill="#0C0A09" transform="translate(0,0)"/>
<path d="" fill="#0A0C09" transform="translate(0,0)"/>
<path d="" fill="#0B0D0C" transform="translate(0,0)"/>
<path d="" fill="#0C0B0C" transform="translate(0,0)"/>
<path d="" fill="#0D0E0F" transform="translate(0,0)"/>
<path d="" fill="#0E0E0C" transform="translate(0,0)"/>
<path d="" fill="#0C0C0B" transform="translate(0,0)"/>
<path d="" fill="#090C09" transform="translate(0,0)"/>
<path d="" fill="#0C0D0D" transform="translate(0,0)"/>
<path d="" fill="#0A0A0A" transform="translate(0,0)"/>
<path d="" fill="#0C0A08" transform="translate(0,0)"/>
<path d="" fill="#0B090A" transform="translate(0,0)"/>
<path d="" fill="#0B0C0A" transform="translate(0,0)"/>
<path d="" fill="#0C0B0A" transform="translate(0,0)"/>
<path d="" fill="#0A0C0B" transform="translate(0,0)"/>
<path d="" fill="#0B0B0C" transform="translate(0,0)"/>
<path d="" fill="#0D0B0A" transform="translate(0,0)"/>
<path d="" fill="#0D0E0C" transform="translate(0,0)"/>
<path d="" fill="#0D0F0C" transform="translate(0,0)"/>
<path d="" fill="#0D0B09" transform="translate(0,0)"/>
<path d="" fill="#0D0F0D" transform="translate(0,0)"/>
<path d="" fill="#0D0E0D" transform="translate(0,0)"/>
<path d="" fill="#0C0E0D" transform="translate(0,0)"/>
<path d="" fill="#0B0C0B" transform="translate(0,0)"/>
<path d="" fill="#0F0C0B" transform="translate(0,0)"/>
<path d="" fill="#0E0E0E" transform="translate(0,0)"/>
<path d="" fill="#0E0F0E" transform="translate(0,0)"/>
<path d="" fill="#0D0D0C" transform="translate(0,0)"/>
<path d="" fill="#0D0C0B" transform="translate(0,0)"/>
<path d="" fill="#0F0D0E" transform="translate(0,0)"/>
<path d="" fill="#0F0F0D" transform="translate(0,0)"/>
<path d="" fill="#0D0C0A" transform="translate(0,0)"/>
<path d="" fill="#0C0E0D" transform="translate(0,0)"/>
<path d="" fill="#0B0B0B" transform="translate(0,0)"/>
<path d="" fill="#0B0D0C" transform="translate(0,0)"/>
<path d="" fill="#0C0C0A" transform="translate(0,0)"/>
<path d="" fill="#0D0D0B" transform="translate(0,0)"/>
<path d="" fill="#0C0B0C" transform="translate(0,0)"/>
<path d="" fill="#090706" transform="translate(0,0)"/>
<path d="" fill="#090B09" transform="translate(0,0)"/>
<path d="" fill="#0D0B0D" transform="translate(0,0)"/>
<path d="" fill="#090C0C" transform="translate(0,0)"/>
<path d="" fill="#090B0A" transform="translate(0,0)"/>
<path d="" fill="#0A0B08" transform="translate(0,0)"/>
<path d="" fill="#100D0C" transform="translate(0,0)"/>
<path d="" fill="#0C0C0C" transform="translate(0,0)"/>
<path d="" fill="#0D0E0B" transform="translate(0,0)"/>
<path d="" fill="#0B0C0B" transform="translate(0,0)"/>
<path d="" fill="#0D0B0C" transform="translate(0,0)"/>
<path d="" fill="#0C0C0A" transform="translate(0,0)"/>
<path d="" fill="#0F0E0E" transform="translate(0,0)"/>
<path d="" fill="#0B0C09" transform="translate(0,0)"/>
<path d="" fill="#0B090A" transform="translate(0,0)"/>
<path d="" fill="#0C0B0B" transform="translate(0,0)"/>
<path d="" fill="#0F0E0F" transform="translate(0,0)"/>
<path d="" fill="#0B0B08" transform="translate(0,0)"/>
<path d="" fill="#0E0D0C" transform="translate(0,0)"/>
<path d="" fill="#0A0808" transform="translate(0,0)"/>
<path d="" fill="#0D0D0D" transform="translate(0,0)"/>
<path d="" fill="#0A0A0A" transform="translate(0,0)"/>
<path d="" fill="#0A0908" transform="translate(0,0)"/>
<path d="" fill="#0E0A0C" transform="translate(0,0)"/>
<path d="" fill="#0E0C0A" transform="translate(0,0)"/>
<path d="" fill="#0D0B09" transform="translate(0,0)"/>
<path d="" fill="#0B0A08" transform="translate(0,0)"/>
<path d="" fill="#0F0D0C" transform="translate(0,0)"/>
<path d="" fill="#0C0B0B" transform="translate(0,0)"/>
<path d="" fill="#0D0E0B" transform="translate(0,0)"/>
<path d="" fill="#0F0F0C" transform="translate(0,0)"/>
<path d="" fill="#0F0D0D" transform="translate(0,0)"/>
<path d="" fill="#0F0E0C" transform="translate(0,0)"/>
<path d="" fill="#0C0B0A" transform="translate(0,0)"/>
<path d="" fill="#0B090B" transform="translate(0,0)"/>
<path d="" fill="#0B0708" transform="translate(0,0)"/>
<path d="" fill="#0D0D0D" transform="translate(0,0)"/>
<path d="" fill="#0C0B08" transform="translate(0,0)"/>
<path d="" fill="#0C0C0A" transform="translate(0,0)"/>
<path d="" fill="#0D0E0D" transform="translate(0,0)"/>
<path d="" fill="#0B0B0C" transform="translate(0,0)"/>
<path d="" fill="#0F0D0B" transform="translate(0,0)"/>
<path d="" fill="#0A0909" transform="translate(0,0)"/>
<path d="" fill="#0A0708" transform="translate(0,0)"/>
<path d="" fill="#0B0808" transform="translate(0,0)"/>
<path d="" fill="#100F0F" transform="translate(0,0)"/>
<path d="" fill="#0E0D0C" transform="translate(0,0)"/>
<path d="" fill="#0C0B0C" transform="translate(0,0)"/>
<path d="" fill="#0F0D0C" transform="translate(0,0)"/>
<path d="" fill="#0D0C0C" transform="translate(0,0)"/>
<path d="" fill="#0B0B0A" transform="translate(0,0)"/>
<path d="" fill="#0D0E0B" transform="translate(0,0)"/>
<path d="" fill="#0A0C09" transform="translate(0,0)"/>
<path d="" fill="#0A090A" transform="translate(0,0)"/>
<path d="" fill="#0F0D0C" transform="translate(0,0)"/>
<path d="" fill="#0C0C0D" transform="translate(0,0)"/>
<path d="" fill="#0D0E0D" transform="translate(0,0)"/>
<path d="" fill="#0D0D0C" transform="translate(0,0)"/>
<path d="" fill="#090708" transform="translate(0,0)"/>
<path d="" fill="#0D0D0D" transform="translate(0,0)"/>
<path d="" fill="#0D0C0B" transform="translate(0,0)"/>
<path d="" fill="#0B0B0C" transform="translate(0,0)"/>
<path d="" fill="#0F0F0D" transform="translate(0,0)"/>
<path d="" fill="#0D0D0E" transform="translate(0,0)"/>
<path d="" fill="#0C0E0C" transform="translate(0,0)"/>
<path d="" fill="#0D0E0B" transform="translate(0,0)"/>
<path d="" fill="#0B0C0B" transform="translate(0,0)"/>
<path d="" fill="#070808" transform="translate(0,0)"/>
<path d="" fill="#070808" transform="translate(0,0)"/>
<path d="" fill="#0C0D0B" transform="translate(0,0)"/>
<path d="" fill="#0F0E0E" transform="translate(0,0)"/>
<path d="" fill="#080808" transform="translate(0,0)"/>
<path d="" fill="#0C0B0B" transform="translate(0,0)"/>
<path d="" fill="#0F0D0C" transform="translate(0,0)"/>
<path d="" fill="#0D0E0C" transform="translate(0,0)"/>
<path d="" fill="#0C100C" transform="translate(0,0)"/>
<path d="" fill="#0E0E0C" transform="translate(0,0)"/>
<path d="" fill="#0F0F0D" transform="translate(0,0)"/>
<path d="" fill="#0E100E" transform="translate(0,0)"/>
<path d="" fill="#10120F" transform="translate(0,0)"/>
<path d="" fill="#0B090B" transform="translate(0,0)"/>
<path d="" fill="#0C080B" transform="translate(0,0)"/>
<path d="" fill="#0E0F0E" transform="translate(0,0)"/>
<path d="" fill="#0F0D0F" transform="translate(0,0)"/>
<path d="" fill="#0F0E0F" transform="translate(0,0)"/>
<path d="" fill="#11100D" transform="translate(0,0)"/>
<path d="" fill="#100D0E" transform="translate(0,0)"/>
<path d="" fill="#110E0F" transform="translate(0,0)"/>
<path d="" fill="#0C0D0D" transform="translate(0,0)"/>
<path d="" fill="#0B0B0B" transform="translate(0,0)"/>
<path d="" fill="#0E0D0D" transform="translate(0,0)"/>
<path d="" fill="#0B0B0B" transform="translate(0,0)"/>
<path d="" fill="#0E0C0B" transform="translate(0,0)"/>
<path d="" fill="#0A0C0A" transform="translate(0,0)"/>
<path d="" fill="#090A09" transform="translate(0,0)"/>
<path d="" fill="#0A0A09" transform="translate(0,0)"/>
<path d="" fill="#0B0C0B" transform="translate(0,0)"/>
<path d="" fill="#0C0D0B" transform="translate(0,0)"/>
<path d="" fill="#0D0C0D" transform="translate(0,0)"/>
<path d="" fill="#0B0B09" transform="translate(0,0)"/>
<path d="" fill="#0D0D0D" transform="translate(0,0)"/>
<path d="" fill="#0E0C0D" transform="translate(0,0)"/>
<path d="" fill="#0B0C0C" transform="translate(0,0)"/>
<path d="" fill="#09090A" transform="translate(0,0)"/>
<path d="" fill="#0C0C0B" transform="translate(0,0)"/>
<path d="" fill="#0A0C0B" transform="translate(0,0)"/>
<path d="" fill="#0C0C0B" transform="translate(0,0)"/>
<path d="" fill="#0E0E0C" transform="translate(0,0)"/>
<path d="" fill="#0B0E0E" transform="translate(0,0)"/>
<path d="" fill="#0B0A0B" transform="translate(0,0)"/>
<path d="" fill="#0B0A08" transform="translate(0,0)"/>
<path d="" fill="#0C0909" transform="translate(0,0)"/>
<path d="" fill="#080806" transform="translate(0,0)"/>
<path d="" fill="#0D0C0C" transform="translate(0,0)"/>
<path d="" fill="#0D0B0B" transform="translate(0,0)"/>
<path d="" fill="#0D0D0D" transform="translate(0,0)"/>
<path d="" fill="#0C0D0C" transform="translate(0,0)"/>
<path d="" fill="#0D0C0B" transform="translate(0,0)"/>
<path d="" fill="#0C090B" transform="translate(0,0)"/>
<path d="" fill="#090908" transform="translate(0,0)"/>
<path d="" fill="#0A0B0A" transform="translate(0,0)"/>
<path d="" fill="#0A0C0B" transform="translate(0,0)"/>
<path d="" fill="#0B0B08" transform="translate(0,0)"/>
<path d="" fill="#0C0D0B" transform="translate(0,0)"/>
<path d="" fill="#080606" transform="translate(0,0)"/>
<path d="" fill="#0B0A09" transform="translate(0,0)"/>
<path d="" fill="#0D0F0E" transform="translate(0,0)"/>
<path d="" fill="#0C0A0B" transform="translate(0,0)"/>
<path d="" fill="#0E0D0D" transform="translate(0,0)"/>
<path d="" fill="#0E0C0C" transform="translate(0,0)"/>
<path d="" fill="#0A0B08" transform="translate(0,0)"/>
<path d="" fill="#0D0D0D" transform="translate(0,0)"/>
<path d="" fill="#0B0D0C" transform="translate(0,0)"/>
<path d="" fill="#0C0B0A" transform="translate(0,0)"/>
<path d="" fill="#0A0C08" transform="translate(0,0)"/>
<path d="" fill="#0D0D0D" transform="translate(0,0)"/>
<path d="" fill="#0B090B" transform="translate(0,0)"/>
<path d="" fill="#0D0C0B" transform="translate(0,0)"/>
<path d="" fill="#0D0C0C" transform="translate(0,0)"/>
<path d="" fill="#0D0E0B" transform="translate(0,0)"/>
<path d="" fill="#060705" transform="translate(0,0)"/>
<path d="" fill="#0B0A09" transform="translate(0,0)"/>
<path d="" fill="#080B0A" transform="translate(0,0)"/>
<path d="" fill="#0D0C0B" transform="translate(0,0)"/>
<path d="" fill="#0B0B0A" transform="translate(0,0)"/>
<path d="" fill="#080808" transform="translate(0,0)"/>
<path d="" fill="#090A07" transform="translate(0,0)"/>
<path d="" fill="#0F0F0C" transform="translate(0,0)"/>
<path d="" fill="#0E0E0C" transform="translate(0,0)"/>
<path d="" fill="#0B0D0E" transform="translate(0,0)"/>
<path d="" fill="#0C0D0C" transform="translate(0,0)"/>
<path d="" fill="#0D0C0C" transform="translate(0,0)"/>
<path d="" fill="#0B0C0B" transform="translate(0,0)"/>
<path d="" fill="#0F0E0C" transform="translate(0,0)"/>
<path d="" fill="#0E0E10" transform="translate(0,0)"/>
<path d="" fill="#0D0D0D" transform="translate(0,0)"/>
<path d="" fill="#0C0B09" transform="translate(0,0)"/>
<path d="" fill="#0D0D0D" transform="translate(0,0)"/>
<path d="" fill="#0E100F" transform="translate(0,0)"/>
<path d="" fill="#0D0D0B" transform="translate(0,0)"/>
<path d="" fill="#0D0D0D" transform="translate(0,0)"/>
<path d="" fill="#0E0D0D" transform="translate(0,0)"/>
<path d="" fill="#0A0A0A" transform="translate(0,0)"/>
<path d="" fill="#0F0D0C" transform="translate(0,0)"/>
<path d="" fill="#0F0F0E" transform="translate(0,0)"/>
<path d="" fill="#0D0E0C" transform="translate(0,0)"/>
<path d="" fill="#100D0D" transform="translate(0,0)"/>
<path d="" fill="#0F120F" transform="translate(0,0)"/>
<path d="" fill="#0F0F0E" transform="translate(0,0)"/>
<path d="" fill="#12100D" transform="translate(0,0)"/>
<path d="" fill="#10100F" transform="translate(0,0)"/>
<path d="" fill="#12110F" transform="translate(0,0)"/>
<path d="" fill="#0E0E0E" transform="translate(0,0)"/>
<path d="" fill="#0F0D10" transform="translate(0,0)"/>
<path d="" fill="#12100F" transform="translate(0,0)"/>
<path d="" fill="#131211" transform="translate(0,0)"/>
<path d="" fill="#11100F" transform="translate(0,0)"/>
<path d="" fill="#101110" transform="translate(0,0)"/>
<path d="" fill="#0E0E0C" transform="translate(0,0)"/>
<path d="" fill="#100F0D" transform="translate(0,0)"/>
<path d="" fill="#0F0C0E" transform="translate(0,0)"/>
<path d="" fill="#0D0E0C" transform="translate(0,0)"/>
<path d="" fill="#0F0C0D" transform="translate(0,0)"/>
<path d="" fill="#100F0E" transform="translate(0,0)"/>
<path d="" fill="#0D0C0C" transform="translate(0,0)"/>
<path d="" fill="#0E0D0E" transform="translate(0,0)"/>
<path d="" fill="#0F0F0C" transform="translate(0,0)"/>
<path d="" fill="#0F0E0C" transform="translate(0,0)"/>
<path d="" fill="#100F0F" transform="translate(0,0)"/>
<path d="" fill="#0F0E0C" transform="translate(0,0)"/>
<path d="" fill="#0F0F0F" transform="translate(0,0)"/>
<path d="" fill="#0E0C0C" transform="translate(0,0)"/>
<path d="" fill="#0E0E0C" transform="translate(0,0)"/>
<path d="" fill="#0F0E0F" transform="translate(0,0)"/>
<path d="" fill="#0F0F0D" transform="translate(0,0)"/>
<path d="" fill="#0E0D0E" transform="translate(0,0)"/>
<path d="" fill="#0E0D0C" transform="translate(0,0)"/>
<path d="" fill="#0D0F0E" transform="translate(0,0)"/>
<path d="" fill="#111111" transform="translate(0,0)"/>
<path d="" fill="#151510" transform="translate(0,0)"/>
<path d="" fill="#121213" transform="translate(0,0)"/>
<path d="" fill="#141111" transform="translate(0,0)"/>
<path d="" fill="#12120F" transform="translate(0,0)"/>
<path d="" fill="#10100F" transform="translate(0,0)"/>
<path d="" fill="#0B0C09" transform="translate(0,0)"/>
<path d="" fill="#131112" transform="translate(0,0)"/>
<path d="" fill="#121513" transform="translate(0,0)"/>
<path d="" fill="#111210" transform="translate(0,0)"/>
<path d="" fill="#131310" transform="translate(0,0)"/>
<path d="" fill="#141415" transform="translate(0,0)"/>
<path d="" fill="#151413" transform="translate(0,0)"/>
<path d="" fill="#181616" transform="translate(0,0)"/>
<path d="" fill="#1A1715" transform="translate(0,0)"/>
<path d="" fill="#171614" transform="translate(0,0)"/>
<path d="" fill="#171614" transform="translate(0,0)"/>
<path d="" fill="#161614" transform="translate(0,0)"/>
<path d="" fill="#181A16" transform="translate(0,0)"/>
<path d="" fill="#1B1A19" transform="translate(0,0)"/>
<path d="" fill="#151211" transform="translate(0,0)"/>
<path d="" fill="#161512" transform="translate(0,0)"/>
<path d="" fill="#131312" transform="translate(0,0)"/>
<path d="" fill="#151615" transform="translate(0,0)"/>
<path d="" fill="#1A1716" transform="translate(0,0)"/>
<path d="" fill="#161718" transform="translate(0,0)"/>
<path d="" fill="#161716" transform="translate(0,0)"/>
<path d="" fill="#171713" transform="translate(0,0)"/>
<path d="" fill="#191719" transform="translate(0,0)"/>
<path d="" fill="#191819" transform="translate(0,0)"/>
<path d="" fill="#191917" transform="translate(0,0)"/>
<path d="" fill="#151714" transform="translate(0,0)"/>
<path d="" fill="#161918" transform="translate(0,0)"/>
</svg>
