<?xml version="1.0" standalone="no"?>
<!DOCTYPE svg PUBLIC "-//W3C//DTD SVG 20010904//EN"
 "http://www.w3.org/TR/2001/REC-SVG-20010904/DTD/svg10.dtd">
<svg version="1.0" xmlns="http://www.w3.org/2000/svg"
 width="500.000000pt" height="500.000000pt" viewBox="0 0 500.000000 500.000000"
 preserveAspectRatio="xMidYMid meet">

<g transform="translate(0.000000,500.000000) scale(0.100000,-0.100000)"
fill="#000000" stroke="none">
<path d="M2216 4855 c-174 -33 -358 -112 -499 -213 -96 -69 -256 -233 -318
-327 -97 -147 -170 -323 -206 -502 -24 -121 -24 -435 1 -578 40 -226 126 -415
252 -554 63 -68 64 -70 64 -126 0 -54 2 -58 49 -103 l50 -48 -67 -23 c-173
-61 -381 -197 -503 -329 -157 -170 -335 -468 -478 -802 l-49 -114 56 -31 c218
-120 1854 -956 1864 -953 31 7 1898 991 1898 1000 0 21 -144 329 -211 451
-216 392 -410 595 -700 731 -52 24 -113 50 -136 57 l-42 12 49 46 c49 46 50
48 50 107 0 58 1 61 46 104 65 64 154 201 192 295 73 184 97 327 96 585 0 164
-3 211 -22 297 -109 503 -458 874 -941 1000 -123 32 -370 41 -495 18z m364
-200 c380 -58 697 -328 833 -712 46 -127 61 -232 60 -413 -2 -322 -56 -512
-195 -687 -39 -50 -64 -70 -122 -98 -277 -138 -1163 -141 -1451 -6 -134 62
-249 239 -296 455 -26 116 -38 334 -28 472 49 628 598 1081 1199 989z m-40
-2090 l0 -25 -115 0 -115 0 0 25 0 25 115 0 115 0 0 -25z m0 -84 c0 -22 -35
-31 -115 -31 -80 0 -115 9 -115 31 0 17 9 19 115 19 106 0 115 -2 115 -19z m0
-86 l0 -25 -115 0 -115 0 0 25 0 25 115 0 115 0 0 -25z m-645 -393 l40 -8
-110 -37 c-216 -75 -445 -202 -622 -346 -35 -28 -63 -49 -63 -46 0 15 44 86
85 137 91 115 251 222 400 267 111 34 203 45 270 33z m495 -254 c0 -112 3
-436 7 -720 l6 -518 -45 0 -46 0 -6 103 c-3 56 -8 380 -11 720 l-6 617 51 0
50 0 0 -202z m425 -120 c128 -24 282 -73 400 -127 70 -33 248 -129 292 -159
10 -6 -14 -68 -93 -243 -58 -128 -110 -238 -114 -243 -5 -5 -78 -3 -169 3 -89
6 -240 14 -336 18 l-175 6 0 388 0 387 43 -5 c23 -2 92 -13 152 -25z m-585
-383 c0 -316 -3 -406 -12 -409 -75 -18 -293 -97 -367 -133 l-93 -46 -68 33
-69 33 -75 171 c-41 94 -111 252 -156 350 -44 99 -80 185 -80 192 0 17 198 85
371 128 179 45 404 84 487 85 l62 1 0 -405z m-1091 -102 c45 -91 80 -167 79
-169 -2 -1 -81 38 -176 88 l-173 90 28 30 c32 34 145 127 155 128 3 0 43 -75
87 -167z m2651 5 c62 -47 67 -54 52 -66 -27 -21 -232 -123 -232 -116 0 3 19
60 42 125 30 84 47 118 56 114 8 -3 44 -29 82 -57z"/>
<path d="M2235 4304 c-239 -35 -471 -122 -616 -232 -47 -35 -58 -51 -83 -114
-58 -151 -69 -210 -70 -383 0 -134 3 -175 22 -248 36 -143 76 -227 125 -263
166 -120 366 -196 604 -230 141 -19 361 -15 493 11 189 37 390 119 515 210 42
31 60 53 79 95 111 250 114 545 9 814 -24 60 -35 75 -84 111 -121 89 -306 167
-499 210 -73 16 -422 29 -495 19z m-369 -433 c-17 -89 -32 -241 -24 -241 3 0
37 12 74 26 138 52 266 75 449 81 276 9 469 -29 682 -132 93 -46 114 -60 120
-83 13 -45 6 -351 -9 -412 -13 -54 -14 -54 -91 -96 -88 -46 -230 -95 -357
-121 -121 -26 -450 -25 -570 0 -129 27 -245 67 -345 117 l-90 45 -12 60 c-19
96 -26 218 -18 320 7 94 14 112 51 133 9 5 18 37 24 91 6 45 21 111 34 146 25
69 88 175 94 157 1 -5 -4 -47 -12 -91z"/>
</g>
</svg>
